<svg width="24" height="25" viewBox="0 0 24 25" fill="none" xmlns="http://www.w3.org/2000/svg">
<path d="M9.5438 4.86754L9.06946 4.70943L9.06946 4.70943L9.5438 4.86754ZM9.12827 6.11412L9.33358 6.57003L9.53334 6.48007L9.60261 6.27224L9.12827 6.11412ZM7.90662 6.82071L7.80638 7.31056L8.02137 7.35455L8.19929 7.2261L7.90662 6.82071ZM6.61767 6.55695L6.51743 7.04679L6.61767 6.55695ZM4.48466 7.51634L4.91767 7.76634L4.48466 7.51634ZM3.92618 8.48366L4.35919 8.73366L3.92618 8.48366ZM4.16182 10.8106L4.53592 10.4789H4.53592L4.16182 10.8106ZM5.03471 11.795L5.53223 11.8447L5.55401 11.627L5.40881 11.4632L5.03471 11.795ZM5.03471 13.205L5.40881 13.5368L5.55401 13.373L5.53223 13.1553L5.03471 13.205ZM4.16182 14.1894L3.78772 13.8577H3.78772L4.16182 14.1894ZM3.92618 16.5163L4.35919 16.2663L3.92618 16.5163ZM4.48466 17.4837L4.91767 17.2337L4.48466 17.4837ZM6.61767 18.4431L6.51743 17.9532H6.51743L6.61767 18.4431ZM7.90662 18.1793L8.19929 17.7739L8.02137 17.6454L7.80638 17.6894L7.90662 18.1793ZM9.12827 18.8859L9.60261 18.7278L9.53334 18.5199L9.33358 18.43L9.12827 18.8859ZM9.5438 20.1325L9.06946 20.2906L9.5438 20.1325ZM14.4555 20.1325L13.9812 19.9743L14.4555 20.1325ZM14.871 18.8859L14.6657 18.43L14.466 18.5199L14.3967 18.7278L14.871 18.8859ZM16.0927 18.1793L16.1929 17.6894L15.9779 17.6454L15.8 17.7739L16.0927 18.1793ZM17.3816 18.4431L17.2814 18.9329H17.2814L17.3816 18.4431ZM19.5146 17.4837L19.0816 17.2337L19.5146 17.4837ZM20.0731 16.5163L20.5061 16.7663L20.0731 16.5163ZM19.8375 14.1894L19.4634 14.5211V14.5211L19.8375 14.1894ZM18.9646 13.205L18.4671 13.1553L18.4453 13.373L18.5905 13.5368L18.9646 13.205ZM18.9646 11.795L18.5905 11.4632L18.4453 11.627L18.4671 11.8447L18.9646 11.795ZM19.8375 10.8106L20.2116 11.1423L19.8375 10.8106ZM20.0731 8.48366L19.6401 8.73366L19.6401 8.73366L20.0731 8.48366ZM19.5146 7.51634L19.9476 7.26634V7.26634L19.5146 7.51634ZM17.3816 6.55695L17.2814 6.0671L17.3816 6.55695ZM16.0927 6.82071L15.8 7.2261L15.9779 7.35455L16.1929 7.31056L16.0927 6.82071ZM14.871 6.11412L14.3967 6.27224L14.466 6.48007L14.6657 6.57003L14.871 6.11412ZM14.4555 4.86754L13.9812 5.02566V5.02566L14.4555 4.86754ZM10.0181 5.02566C10.2223 4.41315 10.7955 4 11.4412 4V3C10.3651 3 9.40974 3.68858 9.06946 4.70943L10.0181 5.02566ZM9.60261 6.27224L10.0181 5.02566L9.06946 4.70943L8.65393 5.95601L9.60261 6.27224ZM8.19929 7.2261C8.55254 6.97107 8.9323 6.75074 9.33358 6.57003L8.92296 5.65822C8.45957 5.8669 8.02134 6.1212 7.61394 6.41532L8.19929 7.2261ZM6.51743 7.04679L7.80638 7.31056L8.00686 6.33086L6.71791 6.0671L6.51743 7.04679ZM4.91767 7.76634C5.24049 7.2072 5.88489 6.91736 6.51743 7.04679L6.71791 6.0671C5.66368 5.85136 4.58968 6.33443 4.05165 7.26634L4.91767 7.76634ZM4.35919 8.73366L4.91767 7.76634L4.05165 7.26634L3.49316 8.23366L4.35919 8.73366ZM4.53592 10.4789C4.10756 9.99579 4.03637 9.29281 4.35919 8.73366L3.49316 8.23366C2.95513 9.16557 3.07378 10.3372 3.78772 11.1423L4.53592 10.4789ZM5.40881 11.4632L4.53592 10.4789L3.78772 11.1423L4.66061 12.1267L5.40881 11.4632ZM5.49965 12.5C5.49965 12.2787 5.51069 12.0601 5.53223 11.8447L4.53719 11.7452C4.51235 11.9936 4.49965 12.2454 4.49965 12.5H5.49965ZM5.53223 13.1553C5.51069 12.9399 5.49965 12.7213 5.49965 12.5H4.49965C4.49965 12.7546 4.51235 13.0064 4.53719 13.2548L5.53223 13.1553ZM4.53592 14.5211L5.40881 13.5368L4.66061 12.8733L3.78772 13.8577L4.53592 14.5211ZM4.35919 16.2663C4.03637 15.7072 4.10756 15.0042 4.53592 14.5211L3.78772 13.8577C3.07378 14.6628 2.95513 15.8344 3.49316 16.7663L4.35919 16.2663ZM4.91767 17.2337L4.35919 16.2663L3.49316 16.7663L4.05164 17.7337L4.91767 17.2337ZM6.51743 17.9532C5.88489 18.0826 5.24049 17.7928 4.91767 17.2337L4.05164 17.7337C4.58968 18.6656 5.66368 19.1486 6.71791 18.9329L6.51743 17.9532ZM7.80638 17.6894L6.51743 17.9532L6.71791 18.9329L8.00686 18.6691L7.80638 17.6894ZM9.33358 18.43C8.9323 18.2493 8.55254 18.0289 8.19929 17.7739L7.61394 18.5847C8.02134 18.8788 8.45958 19.1331 8.92296 19.3418L9.33358 18.43ZM10.0181 19.9743L9.60261 18.7278L8.65393 19.044L9.06946 20.2906L10.0181 19.9743ZM11.4412 21C10.7955 21 10.2223 20.5869 10.0181 19.9743L9.06946 20.2906C9.40974 21.3114 10.3651 22 11.4412 22V21ZM12.5581 21H11.4412V22H12.5581V21ZM13.9812 19.9743C13.777 20.5869 13.2038 21 12.5581 21V22C13.6342 22 14.5896 21.3114 14.9298 20.2906L13.9812 19.9743ZM14.3967 18.7278L13.9812 19.9743L14.9298 20.2906L15.3454 19.044L14.3967 18.7278ZM15.8 17.7739C15.4468 18.0289 15.067 18.2493 14.6657 18.43L15.0763 19.3418C15.5397 19.1331 15.978 18.8788 16.3853 18.5847L15.8 17.7739ZM17.4819 17.9532L16.1929 17.6894L15.9924 18.6691L17.2814 18.9329L17.4819 17.9532ZM19.0816 17.2337C18.7588 17.7928 18.1144 18.0826 17.4819 17.9532L17.2814 18.9329C18.3356 19.1486 19.4096 18.6656 19.9476 17.7337L19.0816 17.2337ZM19.6401 16.2663L19.0816 17.2337L19.9476 17.7337L20.5061 16.7663L19.6401 16.2663ZM19.4634 14.5211C19.8917 15.0042 19.9629 15.7072 19.6401 16.2663L20.5061 16.7663C21.0442 15.8344 20.9255 14.6628 20.2116 13.8577L19.4634 14.5211ZM18.5905 13.5368L19.4634 14.5211L20.2116 13.8577L19.3387 12.8733L18.5905 13.5368ZM18.4996 12.5C18.4996 12.7213 18.4886 12.9399 18.4671 13.1553L19.4621 13.2548C19.4869 13.0064 19.4996 12.7546 19.4996 12.5H18.4996ZM18.4671 11.8447C18.4886 12.0601 18.4996 12.2787 18.4996 12.5H19.4996C19.4996 12.2454 19.4869 11.9936 19.4621 11.7452L18.4671 11.8447ZM19.4634 10.4789L18.5905 11.4632L19.3387 12.1267L20.2116 11.1423L19.4634 10.4789ZM19.6401 8.73366C19.9629 9.2928 19.8917 9.99579 19.4634 10.4789L20.2116 11.1423C20.9255 10.3372 21.0442 9.16557 20.5061 8.23366L19.6401 8.73366ZM19.0816 7.76634L19.6401 8.73366L20.5061 8.23366L19.9476 7.26634L19.0816 7.76634ZM17.4819 7.04679C18.1144 6.91735 18.7588 7.2072 19.0816 7.76634L19.9476 7.26634C19.4096 6.33443 18.3356 5.85136 17.2814 6.0671L17.4819 7.04679ZM16.1929 7.31056L17.4819 7.04679L17.2814 6.0671L15.9924 6.33086L16.1929 7.31056ZM14.6657 6.57003C15.067 6.75074 15.4468 6.97107 15.8 7.2261L16.3853 6.41532C15.978 6.1212 15.5397 5.8669 15.0763 5.65822L14.6657 6.57003ZM13.9812 5.02566L14.3967 6.27224L15.3454 5.95601L14.9298 4.70943L13.9812 5.02566ZM12.5581 4C13.2038 4 13.777 4.41315 13.9812 5.02566L14.9298 4.70943C14.5896 3.68858 13.6342 3 12.5581 3V4ZM11.4412 4H12.5581V3H11.4412V4Z" fill="white"/>
<path fill-rule="evenodd" clip-rule="evenodd" d="M12 13.5C12.5523 13.5 13 13.0523 13 12.5C13 11.9477 12.5523 11.5 12 11.5C11.4477 11.5 11 11.9477 11 12.5C11 13.0523 11.4477 13.5 12 13.5Z" stroke="white"/>
</svg>
