<svg width="350" height="72" viewBox="0 0 350 72" fill="none" xmlns="http://www.w3.org/2000/svg">
<path d="M103.682 17L105.614 5.36364H112.591L112.386 6.61364H106.818L106.159 10.5455H111.205L111 11.7955H105.955L105.091 17H103.682ZM112.483 17L113.937 8.27273H115.278L113.824 17H112.483ZM115.017 6.79545C114.755 6.79545 114.53 6.70644 114.341 6.52841C114.155 6.35038 114.062 6.13636 114.062 5.88636C114.062 5.63636 114.155 5.42235 114.341 5.24432C114.53 5.06629 114.755 4.97727 115.017 4.97727C115.278 4.97727 115.502 5.06629 115.687 5.24432C115.877 5.42235 115.971 5.63636 115.971 5.88636C115.971 6.13636 115.877 6.35038 115.687 6.52841C115.502 6.70644 115.278 6.79545 115.017 6.79545ZM118.076 11.75L117.212 17H115.872L117.326 8.27273H118.622L118.394 9.63636H118.508C118.781 9.19318 119.15 8.83712 119.616 8.56818C120.082 8.29545 120.644 8.15909 121.303 8.15909C121.887 8.15909 122.379 8.2803 122.781 8.52273C123.186 8.76136 123.472 9.125 123.639 9.61364C123.809 10.0985 123.834 10.7121 123.712 11.4545L122.781 17H121.44L122.349 11.5455C122.462 10.8636 122.373 10.3295 122.082 9.94318C121.794 9.55682 121.337 9.36364 120.712 9.36364C120.281 9.36364 119.881 9.45644 119.514 9.64205C119.15 9.82765 118.841 10.0985 118.587 10.4545C118.337 10.8106 118.167 11.2424 118.076 11.75ZM128.107 17.1818C127.376 17.1818 126.762 16.9981 126.266 16.6307C125.77 16.2595 125.419 15.7367 125.215 15.0625C125.014 14.3845 124.99 13.5833 125.141 12.6591C125.296 11.7424 125.586 10.947 126.01 10.2727C126.438 9.59848 126.963 9.07765 127.584 8.71023C128.205 8.3428 128.883 8.15909 129.618 8.15909C130.187 8.15909 130.62 8.25379 130.919 8.44318C131.222 8.62879 131.442 8.84091 131.579 9.07955C131.715 9.31439 131.819 9.50758 131.891 9.65909H132.005L132.721 5.36364H134.062L132.13 17H130.834L131.062 15.6591H130.902C130.777 15.8182 130.603 16.0189 130.38 16.2614C130.156 16.5 129.861 16.714 129.493 16.9034C129.13 17.089 128.668 17.1818 128.107 17.1818ZM128.437 15.9773C128.974 15.9773 129.455 15.8371 129.88 15.5568C130.308 15.2727 130.664 14.8807 130.948 14.3807C131.232 13.8769 131.429 13.2955 131.539 12.6364C131.649 11.9848 131.645 11.4148 131.527 10.9261C131.41 10.4337 131.185 10.0511 130.851 9.77841C130.518 9.50189 130.077 9.36364 129.527 9.36364C128.963 9.36364 128.472 9.50947 128.056 9.80114C127.639 10.089 127.3 10.4811 127.039 10.9773C126.777 11.4697 126.596 12.0227 126.493 12.6364C126.391 13.2576 126.389 13.822 126.488 14.3295C126.586 14.8333 126.794 15.2348 127.113 15.5341C127.435 15.8295 127.876 15.9773 128.437 15.9773ZM139.558 5.36364H141.172L143.513 10.7955H143.649L147.763 5.36364H149.376L144.035 12.2045L143.24 17H141.831L142.626 12.2045L139.558 5.36364ZM151.045 17.1818C150.242 17.1818 149.57 16.9905 149.028 16.608C148.486 16.2254 148.104 15.6894 147.88 15C147.66 14.3106 147.624 13.5076 147.772 12.5909C147.916 11.697 148.202 10.9186 148.63 10.2557C149.062 9.58901 149.598 9.07386 150.238 8.71023C150.882 8.3428 151.59 8.15909 152.363 8.15909C153.166 8.15909 153.837 8.35227 154.374 8.73864C154.916 9.12121 155.299 9.65909 155.522 10.3523C155.746 11.0417 155.784 11.8485 155.636 12.7727C155.492 13.6591 155.202 14.4337 154.766 15.0966C154.335 15.7557 153.799 16.2689 153.159 16.6364C152.522 17 151.818 17.1818 151.045 17.1818ZM151.068 15.9773C151.681 15.9773 152.213 15.8201 152.664 15.5057C153.119 15.1913 153.486 14.7765 153.766 14.2614C154.051 13.7462 154.242 13.1894 154.34 12.5909C154.431 12.0227 154.427 11.4943 154.329 11.0057C154.231 10.5133 154.02 10.1174 153.698 9.81818C153.376 9.51515 152.924 9.36364 152.34 9.36364C151.727 9.36364 151.191 9.52273 150.732 9.84091C150.278 10.1591 149.91 10.5777 149.63 11.0966C149.35 11.6155 149.162 12.1742 149.068 12.7727C148.977 13.3409 148.979 13.8693 149.073 14.358C149.172 14.8428 149.382 15.2348 149.704 15.5341C150.03 15.8295 150.484 15.9773 151.068 15.9773ZM162.672 13.4318L163.536 8.27273H164.877L163.422 17H162.082L162.332 15.5227H162.241C161.968 15.9659 161.587 16.3428 161.099 16.6534C160.61 16.9602 160.036 17.1136 159.377 17.1136C158.832 17.1136 158.366 16.9943 157.979 16.7557C157.597 16.5133 157.324 16.1496 157.161 15.6648C157.002 15.1761 156.983 14.5606 157.104 13.8182L158.036 8.27273H159.377L158.468 13.7273C158.366 14.3636 158.462 14.8712 158.758 15.25C159.053 15.6288 159.479 15.8182 160.036 15.8182C160.369 15.8182 160.722 15.733 161.093 15.5625C161.468 15.392 161.801 15.1307 162.093 14.7784C162.388 14.4261 162.582 13.9773 162.672 13.4318ZM165.47 17L166.925 8.27273H168.22L167.993 9.59091H168.084C168.311 9.15909 168.658 8.80871 169.124 8.53977C169.59 8.27083 170.084 8.13636 170.607 8.13636C170.709 8.13636 170.832 8.13826 170.976 8.14205C171.12 8.14205 171.232 8.14773 171.311 8.15909L171.084 9.52273C171.039 9.51136 170.936 9.49432 170.777 9.47159C170.618 9.44508 170.448 9.43182 170.266 9.43182C169.842 9.43182 169.45 9.52083 169.09 9.69886C168.73 9.87311 168.429 10.1155 168.186 10.4261C167.944 10.733 167.789 11.0833 167.72 11.4773L166.811 17H165.47ZM178.957 17H175.321L177.252 5.36364H180.957C182.086 5.36364 183.016 5.60038 183.747 6.07386C184.482 6.54735 184.993 7.22348 185.281 8.10227C185.572 8.98106 185.616 10.0303 185.411 11.25C185.215 12.447 184.832 13.4754 184.264 14.3352C183.699 15.1913 182.968 15.8504 182.071 16.3125C181.177 16.7708 180.139 17 178.957 17ZM176.94 15.75H179.002C179.965 15.75 180.794 15.5606 181.491 15.1818C182.192 14.803 182.756 14.2633 183.184 13.5625C183.616 12.8617 183.911 12.0303 184.071 11.0682C184.23 10.1439 184.215 9.35038 184.025 8.6875C183.84 8.02083 183.474 7.50947 182.929 7.15341C182.387 6.79356 181.661 6.61364 180.752 6.61364H178.451L176.94 15.75ZM186.231 17L187.685 8.27273H188.981L188.753 9.59091H188.844C189.072 9.15909 189.418 8.80871 189.884 8.53977C190.35 8.27083 190.844 8.13636 191.367 8.13636C191.469 8.13636 191.592 8.13826 191.736 8.14205C191.88 8.14205 191.992 8.14773 192.072 8.15909L191.844 9.52273C191.799 9.51136 191.697 9.49432 191.538 9.47159C191.378 9.44508 191.208 9.43182 191.026 9.43182C190.602 9.43182 190.21 9.52083 189.85 9.69886C189.49 9.87311 189.189 10.1155 188.947 10.4261C188.704 10.733 188.549 11.0833 188.481 11.4773L187.572 17H186.231ZM191.807 17L193.262 8.27273H194.603L193.148 17H191.807ZM194.341 6.79545C194.08 6.79545 193.854 6.70644 193.665 6.52841C193.479 6.35038 193.387 6.13636 193.387 5.88636C193.387 5.63636 193.479 5.42235 193.665 5.24432C193.854 5.06629 194.08 4.97727 194.341 4.97727C194.603 4.97727 194.826 5.06629 195.012 5.24432C195.201 5.42235 195.296 5.63636 195.296 5.88636C195.296 6.13636 195.201 6.35038 195.012 6.52841C194.826 6.70644 194.603 6.79545 194.341 6.79545ZM203.787 8.27273L199.105 17H197.741L195.969 8.27273H197.366L198.616 15.2273H198.707L202.276 8.27273H203.787ZM207.018 17.1818C206.181 17.1818 205.49 16.9962 204.944 16.625C204.399 16.25 204.018 15.7273 203.802 15.0568C203.586 14.3826 203.552 13.5985 203.7 12.7045C203.848 11.8106 204.141 11.0227 204.581 10.3409C205.02 9.6553 205.567 9.12121 206.223 8.73864C206.878 8.35227 207.598 8.15909 208.382 8.15909C208.836 8.15909 209.274 8.23485 209.694 8.38636C210.115 8.53788 210.478 8.78409 210.785 9.125C211.092 9.46212 211.306 9.90909 211.427 10.4659C211.548 11.0227 211.541 11.7083 211.404 12.5227L211.314 13.0909H204.586L204.768 11.9318H210.132C210.219 11.4394 210.196 11 210.064 10.6136C209.935 10.2273 209.709 9.92235 209.387 9.69886C209.069 9.47538 208.666 9.36364 208.177 9.36364C207.673 9.36364 207.204 9.5 206.768 9.77273C206.333 10.0417 205.969 10.3826 205.677 10.7955C205.386 11.2045 205.204 11.6212 205.132 12.0455L204.973 13.0455C204.859 13.7689 204.876 14.3447 205.024 14.7727C205.175 15.2008 205.439 15.5095 205.814 15.6989C206.189 15.8845 206.658 15.9773 207.223 15.9773C207.583 15.9773 207.914 15.928 208.217 15.8295C208.52 15.7273 208.791 15.5758 209.029 15.375C209.268 15.1705 209.469 14.9167 209.632 14.6136L210.859 14.9773C210.651 15.4167 210.357 15.803 209.978 16.1364C209.603 16.4659 209.164 16.7235 208.66 16.9091C208.16 17.0909 207.613 17.1818 207.018 17.1818ZM218.387 17L217.182 8.27273H218.591L219.364 14.9545H219.455L222.432 8.27273H223.864L224.591 14.9318H224.682L227.682 8.27273H229.091L224.978 17H223.66L222.864 10.2955H222.728L219.705 17H218.387ZM229.002 17L230.456 8.27273H231.797L230.342 17H229.002ZM231.536 6.79545C231.274 6.79545 231.049 6.70644 230.859 6.52841C230.674 6.35038 230.581 6.13636 230.581 5.88636C230.581 5.63636 230.674 5.42235 230.859 5.24432C231.049 5.06629 231.274 4.97727 231.536 4.97727C231.797 4.97727 232.02 5.06629 232.206 5.24432C232.395 5.42235 232.49 5.63636 232.49 5.88636C232.49 6.13636 232.395 6.35038 232.206 6.52841C232.02 6.70644 231.797 6.79545 231.536 6.79545ZM237.64 8.27273L237.459 9.40909H232.936L233.118 8.27273H237.64ZM234.777 6.18182H236.118L234.731 14.5C234.671 14.8788 234.68 15.1629 234.76 15.3523C234.843 15.5379 234.968 15.6629 235.135 15.7273C235.305 15.7879 235.489 15.8182 235.686 15.8182C235.834 15.8182 235.955 15.8106 236.049 15.7955C236.144 15.7765 236.22 15.7614 236.277 15.75L236.368 16.9545C236.265 16.9886 236.127 17.0227 235.953 17.0568C235.782 17.0947 235.572 17.1136 235.322 17.1136C234.943 17.1136 234.587 17.0322 234.254 16.8693C233.921 16.7064 233.665 16.4583 233.487 16.125C233.309 15.7917 233.262 15.3712 233.345 14.8636L234.777 6.18182ZM240.187 11.75L239.323 17H237.982L239.914 5.36364H241.255L240.551 9.63636H240.664C240.937 9.18182 241.301 8.82197 241.755 8.55682C242.213 8.29167 242.789 8.15909 243.482 8.15909C244.073 8.15909 244.571 8.27841 244.977 8.51705C245.386 8.75189 245.674 9.11364 245.84 9.60227C246.011 10.0871 246.035 10.7045 245.914 11.4545L244.982 17H243.641L244.551 11.5455C244.664 10.8523 244.571 10.3163 244.272 9.9375C243.977 9.55492 243.516 9.36364 242.891 9.36364C242.452 9.36364 242.043 9.45644 241.664 9.64205C241.289 9.82765 240.971 10.0985 240.71 10.4545C240.452 10.8106 240.278 11.2424 240.187 11.75Z" fill="#F5F5F5"/>
<path d="M330.064 64.9107C330.647 65.2211 331.084 65.8399 329.974 66.2827L329.788 66.354C322.954 68.95 315.798 70.6714 308.5 71.4745C307.839 71.547 307.292 71.333 307.215 70.9834L306.678 68.5325C306.586 68.1173 307.119 67.7282 307.849 67.5947C312.837 66.691 317.714 65.2869 322.4 63.405C322.466 63.3811 322.789 63.2533 322.872 63.223C323.152 63.1122 323.408 62.952 323.627 62.7504C323.83 62.5258 323.852 62.4133 323.786 62.0418C323.76 61.89 323.914 61.6809 324.055 61.7504L330.064 64.9107Z" fill="#E56424"/>
<path d="M344.475 53.2104C345.041 53.2408 345.468 53.6911 344.972 54.2647C344.859 54.3943 344.751 54.5139 344.659 54.6122C341.509 57.9674 337.918 60.9117 333.978 63.3709C333.726 63.5344 333.44 63.6446 333.141 63.6943C332.841 63.7439 332.534 63.7318 332.239 63.6589L327.071 61.8188C326.544 61.6313 326.556 61.1454 327.11 60.7521C329.77 58.9022 332.208 56.7713 334.378 54.3992C334.419 54.3597 334.591 54.1618 334.625 54.1187C334.937 53.7187 334.813 53.4125 334.61 53.0547C334.529 52.9139 334.573 52.6963 334.744 52.7051L344.475 53.2104Z" fill="#E56424"/>
<path d="M346.666 50.5386L346.661 50.5462C346.485 50.7769 346.256 50.9658 345.993 51.0986C345.729 51.2314 345.438 51.3045 345.14 51.3125L337.17 51.4992C336.576 51.5131 336.295 51.1957 336.517 50.7872C337.916 48.2179 338.69 45.9781 338.932 43.6792C338.937 43.6707 338.967 43.3572 338.979 43.1681C338.993 43.0332 338.966 42.8973 338.902 42.7767C338.838 42.6561 338.739 42.5559 338.617 42.488C338.478 42.3776 338.415 42.1339 338.592 42.0911L349.148 39.6556C349.593 39.553 350.01 39.6447 350 40.3096C349.989 40.8319 349.951 41.3534 349.885 41.872C349.52 44.5903 348.467 47.5013 346.666 50.5386Z" fill="#E56424"/>
<path d="M348.218 38.1684L340.069 40.3751C339.392 40.5572 338.847 40.3979 338.772 40.0085C338.383 37.97 337.976 36.5354 336.699 35.0252C336.62 34.9321 336.447 34.7123 336.356 34.624C336.024 34.3014 335.904 34.0996 335.301 34.0859C335.104 34.0814 334.906 33.8195 335.109 33.7217L344.691 29.3112C344.821 29.2518 344.966 29.2327 345.108 29.2566C345.249 29.2806 345.379 29.3463 345.48 29.4447C347.576 31.4643 349.009 34.0347 349.6 36.8349C349.739 37.4959 349.051 37.943 348.218 38.1684Z" fill="#387AFF"/>
<path d="M340.319 25.6829L339.52 26.3618L332.983 31.1833C332.842 31.0814 332.864 31.2744 332.723 31.1833C332.38 30.9433 332.151 30.6452 331.795 30.4055C330.256 29.4045 328.57 28.6325 326.792 28.1154C326.246 27.9715 325.889 27.8119 325.382 27.9882C325.196 28.0529 324.913 27.8878 325.055 27.7566L330.307 22.9285C330.449 22.7972 330.621 22.6994 330.809 22.6428C330.998 22.5861 331.197 22.5721 331.391 22.6019C334.257 23.0432 337.613 24.4335 339.835 25.4265C340.005 25.4961 340.167 25.582 340.319 25.6829Z" fill="#387AFF"/>
<path d="M341.393 26.3652L333.755 32.1172C333.579 31.9843 333.073 31.6013 332.931 31.4951L340.512 25.7859C340.664 25.8973 341.214 26.2275 341.393 26.3652Z" fill="#387AFF"/>
<path d="M342.273 28.5461L334.744 32.4204C334.639 32.4617 334.525 32.4789 334.411 32.4707C334.297 32.4624 334.187 32.4289 334.089 32.3728C333.997 32.3014 333.703 32.0781 333.579 31.984L341.394 26.3652C341.843 26.7109 342.338 27.1148 342.665 27.4305C342.902 27.6575 342.924 28.1974 342.273 28.5461Z" fill="#387AFF"/>
<path d="M328.066 23.2018L325.006 26.0755C324.586 26.4701 323.607 27.0771 323.136 26.9975C320.291 26.5365 317.397 26.4289 314.525 26.6774C307.543 27.179 300.046 29.24 293.246 32.4397C292.715 32.6894 291.79 32.9432 291.274 33.2017C291.269 33.2017 291.311 33.3347 291.309 33.3395C291.281 33.3492 291.256 33.366 291.237 33.3881L290.821 32.4679C290.837 32.4573 290.795 32.4397 290.795 32.4397C291.144 32.2057 291.5 32.0148 291.503 32.0148C300.653 26.5781 311.368 22.8577 321.518 22.129C323.619 21.9712 325.728 21.9582 327.83 22.0898C328.5 22.1342 328.619 22.6844 328.066 23.2018Z" fill="#387AFF"/>
<path d="M344.133 23.1322L343.268 23.9009L342.227 24.6812L311.793 47.4749L318.435 61.7033C318.503 61.848 318.531 62.0067 318.519 62.165C318.507 62.3232 318.453 62.476 318.364 62.6092C318.275 62.7425 318.152 62.852 318.007 62.9278C317.863 63.0036 317.701 63.0433 317.536 63.0432H305.086L301.333 55.0038L291.132 62.3382C286.611 65.6984 296.284 68.4477 302.582 68.2926C302.621 68.2947 302.96 68.2859 303.002 68.2832C303.707 68.2225 304.308 68.0741 304.773 67.4413C304.905 67.2592 305.223 67.2198 305.228 67.367L305.391 71.0276C305.413 71.553 304.599 72.0273 303.743 71.9988C298.29 71.8537 292.886 70.958 287.695 69.339C283.414 67.9639 279.821 66.1488 276.96 64.0192C276.94 64.0143 276.934 64.004 276.919 63.9946C276.369 63.564 275.969 63.2171 276.209 63.0747L277.256 62.4341L298.69 49.3507L291.237 33.3897L290.81 32.4717L290.795 32.4413H303.693C304.372 32.4413 304.895 32.7017 305.102 33.1415L309.119 41.7511L307.352 44.0661L343.222 22.1847C344.097 21.592 344.821 22.5707 344.133 23.1322Z" fill="#E56424"/>
<path d="M285.548 32.4402H271.512L271.481 38.475L260.605 63.0441H269.867C271.045 63.0441 272.337 62.2836 272.753 61.3446L285.548 32.4402Z" fill="#E56424"/>
<path d="M264.723 32.445H258.792C257.623 32.445 256.342 33.2037 255.929 34.1403L249.713 48.2616C249.549 48.6339 248.92 48.7219 248.723 48.3999L241.473 33.0462C241.321 32.8415 241.116 32.6784 240.879 32.573C240.642 32.4676 240.38 32.4235 240.12 32.445H231.162L231.148 32.4493H226.44L226.411 38.428L215.608 62.9667H224.752C225.921 62.9667 227.204 62.208 227.615 61.2715L233.221 48.5465L233.8 42.048L236.551 48.3323L236.539 48.3374L243.273 62.3637C243.424 62.5691 243.629 62.7327 243.866 62.8384C244.103 62.9442 244.365 62.9884 244.626 62.9667H252.379C253.549 62.9667 254.831 62.208 255.243 61.2715L267.932 32.445H264.723Z" fill="#E56424"/>
<path d="M179.533 32.413C164.704 49.177 168.752 44.5785 153.589 61.8816C153.273 62.2305 152.885 62.5129 152.451 62.7113C152.016 62.9097 151.544 63.0198 151.064 63.0348H136.708C136.834 43.6471 136.817 49.445 136.791 32.4111H147.249C148.152 32.4111 148.755 32.8664 148.755 33.5504L148.709 51.3293L146.5 56.3821L149.66 52.7833L167.562 32.413H179.533Z" fill="#E56424"/>
<path d="M220.024 40.3685C221.954 35.974 219.08 32.4126 213.607 32.4126H192.057C186.582 32.4126 180.58 35.974 178.651 40.3685L172.205 55.0424C170.275 59.4363 173.148 62.9984 178.622 62.9984H200.173C205.648 62.9984 211.649 59.4363 213.579 55.0424L220.024 40.3685ZM202.725 53.9969C202.56 54.2985 202.314 54.5519 202.013 54.7306C201.712 54.9093 201.367 55.0067 201.013 55.0127H184.796C184.097 55.0127 183.73 54.5575 183.978 53.9969L189.246 42.0107L186.038 40.2881H207.481C208.181 40.2881 208.547 40.7433 208.299 41.3042L202.725 53.9969Z" fill="#E56424"/>
<path d="M94.1827 38.431L83.3789 62.9747H92.5632C93.7318 62.9747 95.0143 62.2159 95.4265 61.2794L97.91 55.643C97.9653 55.5424 98.0475 55.4578 98.1481 55.3982C98.2487 55.3386 98.364 55.3061 98.482 55.304L107.04 55.2958C107.166 55.3008 107.289 55.3335 107.399 55.3913C107.51 55.4492 107.605 55.5307 107.678 55.6297L110.965 63.4748H121.898C123.082 63.4727 124.027 62.4651 123.628 61.6214L120.419 54.7869C120.341 54.6218 120.513 54.3981 120.778 54.3013C124.47 52.9532 127.736 50.346 129.067 47.3232L132.124 40.3767C134.059 35.9761 131.175 32.4089 125.68 32.4089H94.2126L94.1827 38.431ZM119.032 40.0538C120.075 40.0538 120.623 40.7318 120.255 41.5676L118.244 46.1375C117.872 46.9697 116.734 47.6437 115.693 47.6437H101.436L103.9 42.0516L99.7708 40.0538H119.032Z" fill="#387AFF"/>
<path d="M0.610635 55.0638C-1.34019 59.4683 1.53822 63.0455 7.03701 63.0455H29.4862C30.6552 63.0455 31.9377 62.2868 32.3495 61.3503L35.1251 55.0459H13.2951C12.5931 55.0459 12.2253 54.5907 12.4726 54.0283L17.736 42.0788L14.318 40.2931H39.5018C40.6707 40.2931 41.9532 39.5344 42.3651 38.5972L45.0953 32.3958H20.5754C15.0955 32.3958 9.08538 35.9466 7.13991 40.3362L0.610635 55.0638Z" fill="#387AFF"/>
<path d="M75.3782 32.4641L60.636 32.4775L60.6146 36.7393L35.8231 60.8463L33.4834 63.0444H40.2798L45.503 62.9688C46.2208 62.9478 46.9055 62.6729 47.4267 62.1965L48.0658 61.6083L44.6547 59.6593H68.2253L68.6284 62.1889C68.7052 62.6678 69.1255 62.9688 69.719 62.9688L80.9966 63.0444L75.3782 32.4641ZM57.5745 52.3817L65.7191 44.4224L67.0649 52.3817H57.5745Z" fill="#387AFF"/>
</svg>
