<svg width="24" height="24" viewBox="0 0 24 24" fill="none" xmlns="http://www.w3.org/2000/svg">
<path d="M21 17V17.5C21.2761 17.5 21.5 17.2761 21.5 17H21ZM21 4H21.5C21.5 3.72386 21.2761 3.5 21 3.5V4ZM13 17V16.5C12.9013 16.5 12.8048 16.5292 12.7226 16.584L13 17ZM7 21H6.5C6.5 21.1844 6.60149 21.3538 6.76407 21.4408C6.92665 21.5278 7.12392 21.5183 7.27735 21.416L7 21ZM7 17H7.5C7.5 16.7239 7.27614 16.5 7 16.5V17ZM3 17H2.5C2.5 17.2761 2.72386 17.5 3 17.5V17ZM3 4V3.5C2.72386 3.5 2.5 3.72386 2.5 4H3ZM21.5 17V4H20.5V17H21.5ZM13 17.5H21V16.5H13V17.5ZM7.27735 21.416L13.2774 17.416L12.7226 16.584L6.72265 20.584L7.27735 21.416ZM6.5 17V21H7.5V17H6.5ZM3 17.5H7V16.5H3V17.5ZM2.5 4V17H3.5V4H2.5ZM21 3.5H3V4.5H21V3.5Z" fill="white"/>
</svg>
