<svg width="18" height="13" viewBox="0 0 18 13" fill="none" xmlns="http://www.w3.org/2000/svg">
<path d="M5.30011 10.5397L5.15149 10.3776H4.93153H3.8397V8.84354V8.34354H3.3397H1.8363H1.3363V8.84354V10.3776H1.00977V5.98299H1.3363V7.42857V7.92857H1.8363H3.3397H3.8397V7.42857V5.98299H4.93153H5.16343L5.31323 5.80596L7.10901 3.68367H9.17643H9.67643V3.18367V1.41497V0.914966H9.17643H7.99616V0.5H11.9485V0.914966H10.7683H10.2683V1.41497V3.18367V3.68367H10.7683H14.1265L14.2479 3.86567V6.63265V7.13265H14.7479H15.8975H16.3975V6.63265V5.45238H16.9894V10.1122H16.3975V8.84354V8.34354H15.8975H14.7479H14.2479V8.84354V9.96296L11.7108 12.5H7.09706L5.30011 10.5397Z" stroke="#8E8E93"/>
</svg>
