<svg width="22" height="18" viewBox="0 0 22 18" fill="none" xmlns="http://www.w3.org/2000/svg">
<path d="M12.0826 5.98016C8.01224 6.3003 3.31196 5.95537 3.31196 5.95537C3.31196 5.95537 0.800781 9.17809 0.800781 12.4618C10.1951 12.2977 14.2153 9.71969 15.2343 8.70846C16.2533 7.69723 15.7335 5.69298 12.0826 5.98016ZM5.10806 10.8132C6.21581 9.45941 5.5598 6.99803 5.5598 6.99803H7.93899C7.93899 6.99803 6.38014 10.1158 5.10806 10.8132ZM13.4038 9.09793C12.6792 9.09793 12.0912 8.51015 12.0912 7.78517C12.0912 7.06014 12.6792 6.47243 13.4038 6.47243C14.1291 6.47243 14.7172 7.06014 14.7172 7.78517C14.7172 8.51015 14.1291 9.09793 13.4038 9.09793ZM13.4316 7.01936C13.0085 7.01936 12.6657 7.36231 12.6657 7.78517C12.6657 8.20805 13.0085 8.55085 13.4316 8.55085C13.8539 8.55085 14.1971 8.20805 14.1971 7.78517C14.1971 7.36231 13.8539 7.01936 13.4316 7.01936ZM13.8774 0.534886C9.21371 0.176173 6.1188 2.63618 4.19037 5.50346C5.87659 5.56048 9.16817 5.63023 12.2776 5.45744C16.708 5.2113 16.9538 7.56644 15.8464 8.66563C14.2625 10.2372 10.337 12.5898 1.48187 12.9274C1.28124 15.7042 2.37018 16.5159 3.58551 16.6236C3.58551 16.6236 14.2519 17.959 20.8153 13.8566C23.1129 7.62109 22.4101 1.19126 13.8774 0.534886ZM19.3188 15.1823C14.6548 17.2318 8.84083 17.2734 5.89408 17.1199C6.05808 17.3401 6.32207 17.5 6.61773 17.5H19.1779C19.6745 17.5 20.0649 17.0642 20.0649 16.5678V16.0682C20.0649 15.6218 19.7451 15.2524 19.3188 15.1823Z" fill="#121313"/>
</svg>
