<svg width="9" height="10" viewBox="0 0 9 10" fill="none" xmlns="http://www.w3.org/2000/svg">
<path fill-rule="evenodd" clip-rule="evenodd" d="M8.23529 6.31579C8.23529 7.7193 6.86275 8.94737 4.11765 10C1.37255 8.94737 0 7.7193 0 6.31579C0 4.91228 0 3.15789 0 1.05263C1.84477 0.350877 3.21732 0 4.11765 0C5.01797 0 6.39052 0.350877 8.23529 1.05263C8.23529 3.15789 8.23529 4.91228 8.23529 6.31579Z" fill="#E56424"/>
<rect x="2.25" y="4.08203" width="3.75" height="2.91667" stroke="#F5F5F5" stroke-width="0.5" stroke-linecap="round" stroke-linejoin="round"/>
<path d="M2.66602 3.45833C2.66602 2.65292 3.31893 2 4.12435 2V2C4.92976 2 5.58268 2.65292 5.58268 3.45833V4.08333H2.66602V3.45833Z" stroke="#F5F5F5" stroke-width="0.5" stroke-linecap="round" stroke-linejoin="round"/>
</svg>
