<svg width="121" height="35" viewBox="0 0 121 35" fill="none" xmlns="http://www.w3.org/2000/svg">
<path d="M119.412 30.6886C119.412 32.5373 117.883 34.0347 115.992 34.0347H4.09086C2.201 34.0347 0.666992 32.5373 0.666992 30.6886V4.00474C0.666992 2.15697 2.201 0.654297 4.09086 0.654297H115.991C117.883 0.654297 119.411 2.15697 119.411 4.00474L119.412 30.6886Z" fill="black"/>
<path d="M115.631 0.694902C117.691 0.694902 119.366 2.32856 119.366 4.33621V30.3533C119.366 32.3609 117.691 33.9946 115.631 33.9946H4.44736C2.38823 33.9946 0.712689 32.3609 0.712689 30.3533V4.33621C0.712689 2.32856 2.38823 0.694902 4.44736 0.694902H115.631ZM115.631 3.11887e-05H4.44736C2.00242 3.11887e-05 0 1.95239 0 4.33621V30.3533C0 32.7371 2.00242 34.6895 4.44736 34.6895H115.631C118.076 34.6895 120.079 32.7371 120.079 30.3533V4.33621C120.079 1.95239 118.076 3.11887e-05 115.631 3.11887e-05Z" fill="#A6A6A6"/>
<path d="M26.7989 17.1574C26.7731 14.3623 29.1462 13.0025 29.2547 12.9392C27.9107 11.0286 25.8276 10.7676 25.0955 10.7468C23.346 10.5673 21.6488 11.7675 20.7576 11.7675C19.8485 11.7675 18.4761 10.7641 16.9969 10.7936C15.0934 10.8222 13.3127 11.8967 12.3361 13.5653C10.3205 16.9675 11.8237 21.9671 13.7548 24.7171C14.7207 26.0639 15.8495 27.5677 17.3269 27.5148C18.7723 27.4567 19.3122 26.6163 21.0565 26.6163C22.7847 26.6163 23.2917 27.5148 24.7985 27.481C26.3497 27.4567 27.3263 26.1281 28.2585 24.7691C29.3748 23.2254 29.8231 21.7052 29.8409 21.6271C29.8044 21.615 26.8282 20.5075 26.7989 17.1574Z" fill="white"/>
<path d="M23.9526 8.93773C24.73 7.98984 25.2619 6.70026 25.1142 5.3916C23.989 5.44017 22.5819 6.15043 21.7716 7.07751C21.0547 7.89444 20.4143 9.23345 20.5797 10.4927C21.8436 10.5846 23.1414 9.87087 23.9526 8.93773Z" fill="white"/>
<path d="M47.7159 27.3214H45.6959L44.5894 23.9314H40.7433L39.6893 27.3214H37.7227L41.5332 15.7803H43.8867L47.7159 27.3214ZM44.2558 22.5092L43.2552 19.4955C43.1493 19.1876 42.951 18.4626 42.6583 17.3214H42.6228C42.5062 17.8122 42.3186 18.5372 42.0606 19.4955L41.0777 22.5092H44.2558Z" fill="white"/>
<path d="M57.5155 23.0586C57.5155 24.4739 57.1233 25.5927 56.3387 26.4139C55.6361 27.145 54.7635 27.5101 53.7219 27.5101C52.5976 27.5101 51.79 27.1164 51.2981 26.329H51.2625V30.7128H49.3662V21.7395C49.3662 20.8498 49.3422 19.9366 49.2959 18.9999H50.9637L51.0695 20.319H51.1051C51.7375 19.3252 52.6972 18.8291 53.9852 18.8291C54.9921 18.8291 55.8326 19.2168 56.5051 19.9929C57.1793 20.77 57.5155 21.7916 57.5155 23.0586ZM55.5836 23.1263C55.5836 22.3163 55.3968 21.6485 55.0214 21.1229C54.6114 20.5748 54.0608 20.3008 53.3706 20.3008C52.9027 20.3008 52.4775 20.4534 52.0977 20.7544C51.717 21.0579 51.468 21.4542 51.3515 21.9451C51.2928 22.174 51.2634 22.3614 51.2634 22.5088V23.8964C51.2634 24.5017 51.4538 25.0125 51.8345 25.4296C52.2151 25.8468 52.7097 26.0549 53.3181 26.0549C54.0323 26.0549 54.5883 25.7861 54.9859 25.2501C55.3843 24.7133 55.5836 24.0056 55.5836 23.1263Z" fill="white"/>
<path d="M67.332 23.0586C67.332 24.4739 66.9398 25.5927 66.1543 26.4139C65.4526 27.145 64.58 27.5101 63.5384 27.5101C62.4141 27.5101 61.6065 27.1164 61.1155 26.329H61.0799V30.7128H59.1836V21.7395C59.1836 20.8498 59.1595 19.9366 59.1133 18.9999H60.781L60.8869 20.319H60.9225C61.554 19.3252 62.5137 18.8291 63.8026 18.8291C64.8086 18.8291 65.6491 19.2168 66.3233 19.9929C66.9949 20.77 67.332 21.7916 67.332 23.0586ZM65.4001 23.1263C65.4001 22.3163 65.2124 21.6485 64.837 21.1229C64.427 20.5748 63.8782 20.3008 63.1871 20.3008C62.7183 20.3008 62.294 20.4534 61.9133 20.7544C61.5326 21.0579 61.2845 21.4542 61.168 21.9451C61.1101 22.174 61.0799 22.3614 61.0799 22.5088V23.8964C61.0799 24.5017 61.2703 25.0125 61.6492 25.4296C62.0299 25.8459 62.5244 26.0549 63.1346 26.0549C63.8488 26.0549 64.4048 25.7861 64.8024 25.2501C65.2008 24.7133 65.4001 24.0056 65.4001 23.1263Z" fill="white"/>
<path d="M78.3083 24.0851C78.3083 25.0668 77.9588 25.8655 77.257 26.4821C76.4858 27.156 75.4122 27.4925 74.0326 27.4925C72.7589 27.4925 71.7378 27.2531 70.9648 26.7735L71.4042 25.2324C72.2368 25.7233 73.1503 25.9696 74.1456 25.9696C74.8598 25.9696 75.4158 25.8118 75.8151 25.4978C76.2127 25.1839 76.4111 24.7624 76.4111 24.2369C76.4111 23.7685 76.2474 23.374 75.9192 23.0539C75.5928 22.7339 75.0475 22.4365 74.2861 22.1616C72.2137 21.4079 71.1783 20.3039 71.1783 18.8522C71.1783 17.9034 71.5412 17.1255 72.2679 16.5202C72.992 15.914 73.9579 15.6113 75.1658 15.6113C76.243 15.6113 77.1378 15.7943 77.852 16.1594L77.3779 17.6667C76.7108 17.3128 75.9566 17.1359 75.1125 17.1359C74.4454 17.1359 73.9241 17.2964 73.5505 17.6155C73.2348 17.9008 73.0765 18.2486 73.0765 18.6605C73.0765 19.1167 73.257 19.4939 73.6199 19.7905C73.9357 20.0646 74.5094 20.3612 75.3419 20.6812C76.3604 21.081 77.1084 21.5484 77.5896 22.0844C78.0691 22.6186 78.3083 23.2872 78.3083 24.0851Z" fill="white"/>
<path d="M84.578 20.3874H82.4877V24.4279C82.4877 25.4555 82.8559 25.9689 83.5942 25.9689C83.9331 25.9689 84.2142 25.9403 84.4365 25.8831L84.489 27.2871C84.1154 27.4233 83.6236 27.4918 83.0143 27.4918C82.2653 27.4918 81.6801 27.2689 81.2576 26.824C80.8368 26.3783 80.6251 25.6307 80.6251 24.5805V20.3857H79.3799V18.9981H80.6251V17.4744L82.4877 16.9263V18.9981H84.578V20.3874Z" fill="white"/>
<path d="M94.0096 23.0921C94.0096 24.3712 93.6342 25.4214 92.8853 26.2427C92.0999 27.0883 91.0574 27.5098 89.7579 27.5098C88.5055 27.5098 87.5084 27.1048 86.7648 26.2948C86.0212 25.4848 85.6494 24.4623 85.6494 23.2299C85.6494 21.9404 86.0319 20.8841 86.7995 20.0628C87.5653 19.2407 88.5989 18.8296 89.8984 18.8296C91.1508 18.8296 92.1586 19.2346 92.9191 20.0455C93.6467 20.832 94.0096 21.8476 94.0096 23.0921ZM92.042 23.1519C92.042 22.3844 91.8739 21.7262 91.5333 21.1772C91.1357 20.5129 90.5673 20.1816 89.8308 20.1816C89.0685 20.1816 88.4895 20.5138 88.0919 21.1772C87.7512 21.727 87.5831 22.3957 87.5831 23.1866C87.5831 23.9541 87.7512 24.6123 88.0919 25.1604C88.502 25.8247 89.0748 26.156 89.8139 26.156C90.538 26.156 91.1063 25.8178 91.5164 25.1431C91.8659 24.5837 92.042 23.9185 92.042 23.1519Z" fill="white"/>
<path d="M100.173 20.626C99.9853 20.5922 99.7852 20.5748 99.5753 20.5748C98.9082 20.5748 98.3923 20.8203 98.0294 21.312C97.7136 21.7456 97.5553 22.2937 97.5553 22.9554V27.3219H95.6598L95.6776 21.6207C95.6776 20.6616 95.6536 19.7883 95.6064 19.0008H97.2582L97.3276 20.5931H97.3801C97.5802 20.0458 97.896 19.6053 98.3282 19.2749C98.7507 18.9774 99.207 18.8291 99.6989 18.8291C99.8742 18.8291 100.032 18.8412 100.173 18.8629V20.626Z" fill="white"/>
<path d="M108.654 22.7672C108.654 23.0985 108.632 23.3777 108.584 23.6058H102.895C102.918 24.428 103.192 25.0567 103.721 25.4903C104.2 25.878 104.82 26.0722 105.582 26.0722C106.424 26.0722 107.192 25.9413 107.883 25.6785L108.181 26.962C107.373 27.3054 106.419 27.4763 105.319 27.4763C103.996 27.4763 102.957 27.0964 102.201 26.3376C101.446 25.5788 101.068 24.5598 101.068 23.2815C101.068 22.0266 101.42 20.9816 102.123 20.1482C102.86 19.2584 103.855 18.8135 105.107 18.8135C106.338 18.8135 107.269 19.2584 107.901 20.1482C108.402 20.8549 108.654 21.7291 108.654 22.7672ZM106.845 22.2876C106.858 21.7395 106.734 21.266 106.477 20.8662C106.149 20.352 105.645 20.0952 104.966 20.0952C104.346 20.0952 103.842 20.3459 103.457 20.8489C103.141 21.2487 102.953 21.7283 102.895 22.2868H106.845V22.2876Z" fill="white"/>
<path d="M43.6287 8.68008C43.6287 9.70081 43.3147 10.4692 42.6876 10.9852C42.1068 11.4613 41.2813 11.6998 40.2122 11.6998C39.6821 11.6998 39.2284 11.6772 38.8486 11.6321V6.05496C39.3441 5.9769 39.8778 5.93701 40.4541 5.93701C41.4726 5.93701 42.2402 6.15295 42.7579 6.58484C43.3378 7.07309 43.6287 7.77121 43.6287 8.68008ZM42.6458 8.70523C42.6458 8.04353 42.4661 7.53619 42.1068 7.18236C41.7474 6.8294 41.2226 6.65248 40.5315 6.65248C40.238 6.65248 39.988 6.67156 39.7808 6.71145V10.9514C39.8955 10.9687 40.1055 10.9765 40.4105 10.9765C41.1239 10.9765 41.6745 10.7831 42.0623 10.3963C42.4501 10.0096 42.6458 9.44585 42.6458 8.70523Z" fill="white"/>
<path d="M48.8401 9.57153C48.8401 10.2003 48.656 10.7154 48.2877 11.1195C47.9017 11.535 47.3903 11.7422 46.7516 11.7422C46.1361 11.7422 45.646 11.5436 45.2804 11.1447C44.9157 10.7466 44.7334 10.2445 44.7334 9.63918C44.7334 9.0061 44.9211 8.48662 45.2982 8.08336C45.6753 7.68009 46.1824 7.47803 46.821 7.47803C47.4365 7.47803 47.9311 7.67662 48.3055 8.07469C48.6613 8.46147 48.8401 8.961 48.8401 9.57153ZM47.8732 9.60102C47.8732 9.22377 47.7896 8.90029 47.6233 8.63058C47.4276 8.3045 47.1492 8.14146 46.7872 8.14146C46.4127 8.14146 46.1281 8.3045 45.9324 8.63058C45.7652 8.90029 45.6825 9.22898 45.6825 9.6175C45.6825 9.99474 45.7661 10.3182 45.9324 10.5879C46.1343 10.914 46.4154 11.0771 46.7783 11.0771C47.1341 11.0771 47.4134 10.9114 47.6144 10.5793C47.787 10.3043 47.8732 9.97827 47.8732 9.60102Z" fill="white"/>
<path d="M55.828 7.56152L54.5161 11.6497H53.6622L53.1187 9.87444C52.9808 9.43128 52.8687 8.99073 52.7816 8.55364H52.7647C52.6837 9.00287 52.5717 9.44256 52.4276 9.87444L51.8503 11.6497H50.9866L49.7529 7.56152H50.7109L51.185 9.505C51.2997 9.96463 51.394 10.4026 51.4696 10.8171H51.4865C51.5559 10.4754 51.6706 10.0401 51.8325 9.51367L52.4276 7.56239H53.1872L53.7573 9.47204C53.8952 9.93775 54.0073 10.3861 54.0936 10.818H54.1193C54.1825 10.3974 54.2777 9.94902 54.404 9.47204L54.9128 7.56239H55.828V7.56152Z" fill="white"/>
<path d="M60.6606 11.6496H59.7285V9.30806C59.7285 8.58651 59.4474 8.22574 58.8835 8.22574C58.6069 8.22574 58.3836 8.32461 58.2102 8.52321C58.0385 8.7218 57.9513 8.95596 57.9513 9.22393V11.6487H57.0191V8.72961C57.0191 8.37057 57.0076 7.98118 56.9854 7.55971H57.8046L57.8481 8.19886H57.8739C57.9824 8.00026 58.1443 7.83636 58.3569 7.7054C58.6095 7.55277 58.8924 7.47559 59.2019 7.47559C59.5933 7.47559 59.9188 7.59873 60.1777 7.8459C60.4996 8.14856 60.6606 8.60039 60.6606 9.20052V11.6496Z" fill="white"/>
<path d="M63.2311 11.6495H62.2998V5.68555H63.2311V11.6495Z" fill="white"/>
<path d="M68.719 9.57153C68.719 10.2003 68.5349 10.7154 68.1666 11.1195C67.7806 11.535 67.2683 11.7422 66.6305 11.7422C66.0141 11.7422 65.524 11.5436 65.1593 11.1447C64.7946 10.7466 64.6123 10.2445 64.6123 9.63918C64.6123 9.0061 64.8 8.48662 65.1771 8.08336C65.5543 7.68009 66.0613 7.47803 66.699 7.47803C67.3154 7.47803 67.8091 7.67662 68.1844 8.07469C68.5402 8.46147 68.719 8.961 68.719 9.57153ZM67.7513 9.60102C67.7513 9.22377 67.6676 8.90029 67.5013 8.63058C67.3065 8.3045 67.0272 8.14146 66.6661 8.14146C66.2907 8.14146 66.0061 8.3045 65.8113 8.63058C65.6441 8.90029 65.5614 9.22898 65.5614 9.6175C65.5614 9.99474 65.645 10.3182 65.8113 10.5879C66.0132 10.914 66.2943 11.0771 66.6572 11.0771C67.013 11.0771 67.2914 10.9114 67.4924 10.5793C67.6659 10.3043 67.7513 9.97827 67.7513 9.60102Z" fill="white"/>
<path d="M73.2303 11.6494H72.3933L72.324 11.1785H72.2982C72.0118 11.554 71.6035 11.7422 71.0734 11.7422C70.6776 11.7422 70.3574 11.6182 70.1163 11.3719C69.8975 11.1482 69.7881 10.8698 69.7881 10.5394C69.7881 10.0398 70.0016 9.65912 70.4312 9.39548C70.8599 9.13184 71.463 9.00263 72.2395 9.0087V8.93238C72.2395 8.39383 71.9495 8.12499 71.3687 8.12499C70.9551 8.12499 70.5904 8.22645 70.2755 8.42765L70.0861 7.83099C70.4756 7.59597 70.9569 7.47803 71.5243 7.47803C72.6202 7.47803 73.1699 8.04173 73.1699 9.16914V10.6747C73.1699 11.0831 73.1903 11.4083 73.2303 11.6494ZM72.2626 10.2445V9.61403C71.2344 9.59668 70.7203 9.8716 70.7203 10.4379C70.7203 10.6512 70.779 10.8108 70.899 10.9175C71.0191 11.0242 71.1721 11.0771 71.3544 11.0771C71.559 11.0771 71.7503 11.0137 71.9246 10.888C72.0998 10.7614 72.2074 10.6009 72.2475 10.4041C72.2573 10.3599 72.2626 10.3061 72.2626 10.2445Z" fill="white"/>
<path d="M78.527 11.6495H77.6998L77.6562 10.993H77.6304C77.3663 11.4926 76.9162 11.7423 76.2838 11.7423C75.7786 11.7423 75.3578 11.5489 75.0243 11.1621C74.6907 10.7754 74.5244 10.2732 74.5244 9.65662C74.5244 8.99492 74.705 8.45897 75.0679 8.04963C75.4192 7.66805 75.8497 7.47726 76.3621 7.47726C76.9251 7.47726 77.3191 7.66198 77.5433 8.03229H77.5611V5.68555H78.4941V10.5481C78.4941 10.9462 78.5048 11.313 78.527 11.6495ZM77.5611 9.92546V9.24381C77.5611 9.12587 77.5522 9.03048 77.5353 8.95763C77.4828 8.73908 77.3698 8.55523 77.1982 8.40693C77.0247 8.25864 76.8157 8.18405 76.5746 8.18405C76.2269 8.18405 75.9547 8.31847 75.7545 8.58818C75.5562 8.85789 75.4557 9.20219 75.4557 9.6228C75.4557 10.0269 75.5509 10.3547 75.7421 10.6071C75.944 10.876 76.2162 11.0104 76.5569 11.0104C76.8628 11.0104 77.1074 10.8985 77.2933 10.6739C77.473 10.4666 77.5611 10.2169 77.5611 9.92546Z" fill="white"/>
<path d="M86.4993 9.57153C86.4993 10.2003 86.3151 10.7154 85.9469 11.1195C85.5609 11.535 85.0503 11.7422 84.4108 11.7422C83.7962 11.7422 83.3061 11.5436 82.9396 11.1447C82.5749 10.7466 82.3926 10.2445 82.3926 9.63918C82.3926 9.0061 82.5803 8.48662 82.9574 8.08336C83.3345 7.68009 83.8415 7.47803 84.4811 7.47803C85.0957 7.47803 85.5911 7.67662 85.9647 8.07469C86.3205 8.46147 86.4993 8.961 86.4993 9.57153ZM85.5333 9.60102C85.5333 9.22377 85.4497 8.90029 85.2834 8.63058C85.0868 8.3045 84.8093 8.14146 84.4464 8.14146C84.0728 8.14146 83.7882 8.3045 83.5916 8.63058C83.4244 8.90029 83.3416 9.22898 83.3416 9.6175C83.3416 9.99474 83.4253 10.3182 83.5916 10.5879C83.7935 10.914 84.0746 11.0771 84.4375 11.0771C84.7933 11.0771 85.0734 10.9114 85.2745 10.5793C85.4461 10.3043 85.5333 9.97827 85.5333 9.60102Z" fill="white"/>
<path d="M91.5123 11.6496H90.581V9.30806C90.581 8.58651 90.2999 8.22574 89.7351 8.22574C89.4585 8.22574 89.2352 8.32461 89.0627 8.52321C88.8901 8.7218 88.8039 8.95596 88.8039 9.22393V11.6487H87.8708V8.72961C87.8708 8.37057 87.8601 7.98118 87.8379 7.55971H88.6562L88.6998 8.19886H88.7256C88.835 8.00026 88.9969 7.83636 89.2086 7.7054C89.4621 7.55277 89.744 7.47559 90.0545 7.47559C90.4449 7.47559 90.7705 7.59873 91.0293 7.8459C91.3522 8.14856 91.5123 8.60039 91.5123 9.20052V11.6496Z" fill="white"/>
<path d="M97.7851 8.24188H96.7587V10.2279C96.7587 10.7326 96.941 10.9849 97.3021 10.9849C97.4694 10.9849 97.6081 10.9711 97.7175 10.9425L97.7415 11.6319C97.5574 11.6996 97.3155 11.7334 97.0175 11.7334C96.6493 11.7334 96.3628 11.6241 96.1556 11.4056C95.9475 11.187 95.8443 10.8193 95.8443 10.3033V8.24188H95.2314V7.5611H95.8443V6.81181L96.7578 6.54297V7.56024H97.7842V8.24188H97.7851Z" fill="white"/>
<path d="M102.72 11.6495H101.787V9.32533C101.787 8.59252 101.506 8.22568 100.942 8.22568C100.51 8.22568 100.215 8.43815 100.053 8.8631C100.025 8.95242 100.009 9.06169 100.009 9.19005V11.6487H99.0781V5.68555H100.009V8.14936H100.027C100.321 7.701 100.741 7.47726 101.287 7.47726C101.673 7.47726 101.992 7.6004 102.246 7.84756C102.561 8.15543 102.72 8.61333 102.72 9.21866V11.6495Z" fill="white"/>
<path d="M107.811 9.41244C107.811 9.57548 107.798 9.71251 107.776 9.82438H104.98C104.993 10.2285 105.126 10.5364 105.385 10.7497C105.622 10.9405 105.927 11.0359 106.3 11.0359C106.714 11.0359 107.091 10.9717 107.431 10.8425L107.577 11.4739C107.179 11.6421 106.711 11.7262 106.17 11.7262C105.52 11.7262 105.009 11.5398 104.639 11.1669C104.267 10.794 104.083 10.2936 104.083 9.66568C104.083 9.04907 104.255 8.53567 104.601 8.12633C104.962 7.68925 105.45 7.4707 106.067 7.4707C106.67 7.4707 107.128 7.68925 107.437 8.12633C107.687 8.47323 107.811 8.90251 107.811 9.41244ZM106.921 9.17742C106.928 8.90771 106.867 8.67529 106.741 8.4793C106.579 8.22693 106.332 8.10032 105.999 8.10032C105.695 8.10032 105.447 8.22346 105.257 8.47063C105.102 8.66749 105.011 8.90251 104.98 9.17742H106.921Z" fill="white"/>
</svg>
