<svg width="38" height="38" viewBox="0 0 38 38" fill="none" xmlns="http://www.w3.org/2000/svg">
<rect width="38" height="38" rx="19" fill="#387AFF"/>
<path d="M31.666 16.1479V24.7329C31.666 25.2601 31.2268 25.6837 30.6877 25.6837H28.8508C28.3915 25.6837 27.9123 25.3824 27.7127 24.9777L27.543 24.6105C27.513 24.5541 27.3932 24.4788 27.3433 24.4788H26.0455L25.8358 26.032C25.7759 26.5215 25.3167 26.9168 24.8076 26.9168H16.7811C16.3219 26.9168 15.8526 26.625 15.643 26.2297L15.1039 25.1565C15.074 25.0906 14.9442 25.0153 14.8943 25.0153H11.5399C11.0008 25.0153 10.5616 24.5917 10.5616 24.074V20.2898H8.94428V22.5208C8.94428 22.7843 8.71466 23.0009 8.43513 23.0009C8.1556 23.0009 7.91602 22.7843 7.91602 22.5208V17.0892C7.91602 16.8257 8.14562 16.6092 8.43513 16.6092C8.72464 16.6092 8.94428 16.8257 8.94428 17.0892V19.3202H10.5616V16.7974C10.5616 16.2797 11.0008 15.8561 11.5399 15.8561H14.8943L14.8444 14.6606C14.8444 14.1428 15.2836 13.7192 15.8227 13.7192H19.207V12.0531H16.9907C16.7112 12.0531 16.4816 11.8366 16.4816 11.573C16.4816 11.3094 16.7112 11.0835 16.9907 11.0835H22.4416C22.7311 11.0835 22.9607 11.3 22.9607 11.573C22.9607 11.846 22.7311 12.0531 22.4416 12.0531H20.2353V13.7192H22.9407C23.3301 13.7192 23.8192 13.9075 24.0988 14.1711L25.4365 15.4042C25.7061 15.6584 25.9357 16.1102 25.9756 16.4774L26.0355 17.0516L27.3433 17.0798C27.3433 17.0798 27.4331 17.0233 27.4431 16.9857L27.7526 15.9879C27.8924 15.536 28.3616 15.1972 28.8508 15.1972H30.6877C31.2268 15.1972 31.666 15.6208 31.666 16.1479Z" fill="#F5F5F5"/>
</svg>
