<svg width="130" height="22" viewBox="0 0 130 22" fill="none" xmlns="http://www.w3.org/2000/svg">
<path d="M122.595 18.8809C122.812 19.0175 122.974 19.2898 122.562 19.4846L122.493 19.516C119.955 20.6582 117.296 21.4157 114.586 21.769C114.34 21.8009 114.137 21.7068 114.109 21.5529L113.909 20.4745C113.875 20.2918 114.073 20.1206 114.344 20.0619C116.197 19.6643 118.008 19.0464 119.749 18.2185C119.773 18.2079 119.893 18.1517 119.924 18.1383C120.028 18.0896 120.123 18.0191 120.204 17.9304C120.28 17.8316 120.288 17.7821 120.264 17.6186C120.254 17.5518 120.311 17.4598 120.363 17.4904L122.595 18.8809Z" fill="#F5F5F5"/>
<path d="M127.948 13.7327C128.158 13.7461 128.317 13.9442 128.132 14.1966C128.09 14.2536 128.05 14.3062 128.016 14.3495C126.846 15.8258 125.512 17.1213 124.049 18.2033C123.955 18.2753 123.849 18.3238 123.738 18.3456C123.626 18.3674 123.512 18.3621 123.403 18.33L121.483 17.5204C121.288 17.4379 121.292 17.2241 121.498 17.051C122.486 16.2371 123.391 15.2995 124.197 14.2558C124.213 14.2384 124.277 14.1513 124.289 14.1324C124.405 13.9564 124.359 13.8216 124.283 13.6642C124.254 13.6022 124.27 13.5065 124.333 13.5104L127.948 13.7327Z" fill="#F5F5F5"/>
<path d="M128.761 12.5571L128.76 12.5604C128.694 12.6619 128.609 12.7451 128.511 12.8035C128.414 12.8619 128.305 12.8941 128.195 12.8976L125.235 12.9797C125.014 12.9859 124.909 12.8462 124.992 12.6664C125.511 11.5359 125.799 10.5505 125.889 9.53893C125.891 9.53519 125.902 9.39725 125.906 9.31406C125.912 9.2547 125.902 9.1949 125.878 9.14183C125.854 9.08876 125.817 9.04466 125.772 9.01481C125.72 8.96621 125.697 8.85898 125.762 8.84015L129.683 7.76854C129.849 7.7234 130.004 7.76373 130 8.0563C129.996 8.28614 129.982 8.51558 129.957 8.74374C129.821 9.9398 129.431 11.2207 128.761 12.5571Z" fill="#F5F5F5"/>
<path d="M129.338 7.1141L126.311 8.08502C126.06 8.16514 125.858 8.09504 125.83 7.92371C125.685 7.02676 125.534 6.39555 125.06 5.73108C125.031 5.69008 124.966 5.59341 124.932 5.55455C124.809 5.4126 124.765 5.3238 124.541 5.31779C124.467 5.31579 124.394 5.20055 124.469 5.15755L128.028 3.21689C128.077 3.19076 128.131 3.18237 128.183 3.1929C128.236 3.20342 128.284 3.23234 128.321 3.27565C129.1 4.16429 129.632 5.29525 129.852 6.52735C129.903 6.81818 129.648 7.01488 129.338 7.1141Z" fill="#F5F5F5"/>
<path d="M126.405 1.62065L126.107 1.91937L123.68 4.04083C123.627 3.99596 123.635 4.08089 123.583 4.04083C123.456 3.9352 123.371 3.80407 123.238 3.69858C122.667 3.25813 122.04 2.91845 121.38 2.69093C121.177 2.62763 121.045 2.55739 120.856 2.63498C120.787 2.66342 120.682 2.59078 120.735 2.53309L122.686 0.408691C122.739 0.35092 122.802 0.307898 122.872 0.282976C122.942 0.258054 123.016 0.251905 123.089 0.265008C124.153 0.459167 125.399 1.07089 126.225 1.50781C126.288 1.53846 126.348 1.57626 126.405 1.62065Z" fill="#F5F5F5"/>
<path d="M126.803 1.92093L123.966 4.45181C123.901 4.39332 123.713 4.2248 123.66 4.17807L126.476 1.66602C126.532 1.71502 126.737 1.86031 126.803 1.92093Z" fill="#F5F5F5"/>
<path d="M127.129 2.88048L124.333 4.58518C124.294 4.60335 124.252 4.61092 124.209 4.60728C124.167 4.60365 124.126 4.58891 124.09 4.56421C124.056 4.53283 123.946 4.43455 123.9 4.39316L126.803 1.9209C126.97 2.07299 127.154 2.25073 127.275 2.3896C127.363 2.48949 127.371 2.72705 127.129 2.88048Z" fill="#F5F5F5"/>
<path d="M121.853 0.528803L120.717 1.79324C120.561 1.96684 120.197 2.2339 120.022 2.19892C118.966 1.99605 117.891 1.94871 116.824 2.05804C114.231 2.27877 111.446 3.1856 108.92 4.59346C108.723 4.70336 108.379 4.81499 108.188 4.92876C108.186 4.92876 108.201 4.98725 108.201 4.98939C108.19 4.99364 108.181 5.00102 108.174 5.01075L108.019 4.60588C108.025 4.6012 108.01 4.59346 108.01 4.59346C108.14 4.4905 108.272 4.40651 108.273 4.40651C111.671 2.01437 115.651 0.377375 119.421 0.0567589C120.201 -0.0126517 120.985 -0.0184085 121.766 0.0395327C122.014 0.0590288 122.059 0.301127 121.853 0.528803Z" fill="#F5F5F5"/>
<path d="M127.821 0.49794L127.499 0.836183L127.113 1.1795L115.809 11.2087L118.276 17.4692C118.301 17.5329 118.312 17.6027 118.307 17.6724C118.302 17.742 118.283 17.8092 118.249 17.8678C118.216 17.9265 118.171 17.9747 118.117 18.008C118.063 18.0414 118.003 18.0588 117.942 18.0588H113.318L111.924 14.5215L108.135 17.7486C106.456 19.2271 110.048 20.4368 112.388 20.3685C112.402 20.3695 112.528 20.3656 112.544 20.3644C112.806 20.3377 113.029 20.2724 113.202 19.994C113.25 19.9138 113.369 19.8965 113.371 19.9613L113.431 21.5719C113.439 21.8031 113.137 22.0118 112.819 21.9993C110.793 21.9354 108.786 21.5413 106.858 20.829C105.268 20.2239 103.934 19.4252 102.871 18.4882C102.863 18.4861 102.861 18.4816 102.856 18.4774C102.651 18.2879 102.503 18.1353 102.592 18.0727L102.981 17.7908L110.942 12.0341L108.174 5.01127L108.015 4.60733L108.01 4.59398H112.8C113.052 4.59398 113.247 4.70855 113.324 4.90204L114.816 8.69028L114.159 9.70888L127.482 0.0810452C127.808 -0.179748 128.077 0.250901 127.821 0.49794Z" fill="#F5F5F5"/>
<path d="M106.06 4.59375H100.847L100.835 7.24908L96.7959 18.0595H100.236C100.674 18.0595 101.153 17.7249 101.308 17.3117L106.06 4.59375Z" fill="#F5F5F5"/>
<path d="M98.3256 4.59609H96.1227C95.6885 4.59609 95.2125 4.92992 95.0592 5.34201L92.7506 11.5554C92.6895 11.7192 92.456 11.7579 92.3826 11.6163L89.6899 4.86062C89.6334 4.77053 89.5574 4.69878 89.4693 4.6524C89.3812 4.60602 89.284 4.58662 89.1874 4.59609H85.8601L85.8547 4.59796H84.1061L84.0953 7.22859L80.083 18.0256H83.4791C83.9134 18.0256 84.3898 17.6918 84.5426 17.2797L86.6247 11.6808L86.8399 8.82138L87.8616 11.5865L87.8573 11.5888L90.3583 17.7603C90.4146 17.8507 90.4906 17.9227 90.5787 17.9692C90.6669 18.0157 90.7641 18.0352 90.8608 18.0256H93.7408C94.1752 18.0256 94.6515 17.6918 94.8043 17.2797L99.5176 4.59609H98.3256Z" fill="#F5F5F5"/>
<path d="M66.6839 4.58186C61.1757 11.958 62.6793 9.93472 57.0475 17.548C56.9299 17.7016 56.786 17.8258 56.6247 17.9131C56.4633 18.0004 56.2879 18.0489 56.1095 18.0555H50.7773C50.8241 9.5249 50.8177 12.0759 50.8081 4.58105H54.6925C55.0281 4.58105 55.252 4.78136 55.252 5.08234L55.2349 12.9051L54.4144 15.1283L55.5879 13.5448L62.2373 4.58186H66.6839Z" fill="#F5F5F5"/>
<path d="M81.7235 8.08215C82.4404 6.14857 81.3729 4.58154 79.3402 4.58154H71.3359C69.3024 4.58154 67.0732 6.14857 66.3566 8.08215L63.9625 14.5387C63.2456 16.472 64.3124 18.0393 66.3457 18.0393H74.3503C76.3838 18.0393 78.6129 16.472 79.3297 14.5387L81.7235 8.08215ZM75.2984 14.0786C75.2371 14.2114 75.1458 14.3228 75.034 14.4015C74.9221 14.4801 74.7939 14.5229 74.6626 14.5256H68.639C68.3793 14.5256 68.2432 14.3253 68.3352 14.0786L70.2919 8.8047L69.1003 8.04676H77.065C77.3246 8.04676 77.4609 8.24706 77.3688 8.49384L75.2984 14.0786Z" fill="#F5F5F5"/>
<path d="M34.9826 7.2298L30.9697 18.029H34.381C34.8151 18.029 35.2914 17.6952 35.4445 17.2831L36.367 14.8031C36.3875 14.7588 36.418 14.7216 36.4554 14.6954C36.4928 14.6691 36.5356 14.6548 36.5795 14.6539L39.7583 14.6503C39.805 14.6525 39.8506 14.6669 39.8916 14.6923C39.9327 14.7178 39.9681 14.7537 39.9951 14.7972L41.2161 18.2491H45.2768C45.7167 18.2481 46.0676 17.8048 45.9196 17.4336L44.7275 14.4264C44.6986 14.3537 44.7625 14.2553 44.8609 14.2127C46.2322 13.6196 47.4453 12.4724 47.9398 11.1424L49.0749 8.08589C49.7937 6.14964 48.7225 4.58008 46.6817 4.58008H34.9937L34.9826 7.2298ZM44.2122 7.94381C44.5999 7.94381 44.8033 8.24213 44.6667 8.60988L43.9197 10.6206C43.7814 10.9868 43.3587 11.2834 42.9721 11.2834H37.6767L38.592 8.82287L37.0582 7.94381H44.2122Z" fill="#F5F5F5"/>
<path d="M0.226807 14.5482C-0.497783 16.4862 0.571338 18.0601 2.61375 18.0601H10.952C11.3862 18.0601 11.8626 17.7263 12.0155 17.3142L13.0465 14.5403H4.93816C4.67743 14.5403 4.54081 14.34 4.63267 14.0926L6.58766 8.83477L5.31811 8.04905H14.6721C15.1063 8.04905 15.5826 7.71522 15.7356 7.30286L16.7497 4.57422H7.64229C5.60689 4.57422 3.37457 6.13657 2.65197 8.06801L0.226807 14.5482Z" fill="#F5F5F5"/>
<path d="M27.9975 4.60449L22.5218 4.61037L22.5138 6.48559L13.3056 17.0926L12.4365 18.0598H14.9609L16.9009 18.0266C17.1675 18.0173 17.4219 17.8964 17.6155 17.6867L17.8528 17.4279L16.5859 16.5704H25.3407L25.4904 17.6834C25.5189 17.8941 25.675 18.0266 25.8954 18.0266L30.0843 18.0598L27.9975 4.60449ZM21.3846 13.3682L24.4098 9.86615L24.9096 13.3682H21.3846Z" fill="#F5F5F5"/>
</svg>
