<svg width="120" height="35" viewBox="0 0 120 35" fill="none" xmlns="http://www.w3.org/2000/svg">
<path d="M115.558 34.6895H4.52719C2.08561 34.6895 0.0859375 32.7371 0.0859375 30.3533V4.33621C0.0859375 1.95239 2.08561 3.11887e-05 4.52719 3.11887e-05H115.558C118 3.11887e-05 120 1.95239 120 4.33621V30.3533C120 32.7371 118 34.6895 115.558 34.6895Z" fill="black"/>
<path d="M115.558 0.694902C117.615 0.694902 119.288 2.32856 119.288 4.33621V30.3533C119.288 32.3609 117.615 33.9946 115.558 33.9946H4.52719C2.47089 33.9946 0.797647 32.3609 0.797647 30.3533V4.33621C0.797647 2.32856 2.47089 0.694902 4.52719 0.694902H115.558ZM115.558 3.11887e-05H4.52719C2.08561 3.11887e-05 0.0859375 1.95239 0.0859375 4.33621V30.3533C0.0859375 32.7371 2.08561 34.6895 4.52719 34.6895H115.558C118 34.6895 120 32.7371 120 30.3533V4.33621C120 1.95239 118 3.11887e-05 115.558 3.11887e-05Z" fill="#A6A6A6"/>
<path d="M42.2046 8.88378C42.2046 9.60793 41.9826 10.1879 41.5451 10.6204C41.0421 11.1332 40.387 11.3912 39.5843 11.3912C38.8171 11.3912 38.162 11.1288 37.6246 10.6118C37.0861 10.0871 36.8174 9.44315 36.8174 8.6724C36.8174 7.90164 37.0861 7.25772 37.6246 6.73738C38.162 6.21595 38.8171 5.95361 39.5843 5.95361C39.9662 5.95361 40.3304 6.03058 40.6779 6.17367C41.0244 6.31785 41.3064 6.51298 41.5107 6.75364L41.0466 7.21111C40.6902 6.80025 40.2049 6.59754 39.5843 6.59754C39.0247 6.59754 38.5395 6.78833 38.1276 7.17316C37.7201 7.55908 37.5158 8.05883 37.5158 8.6724C37.5158 9.28597 37.7201 9.79005 38.1276 10.176C38.5395 10.5565 39.0247 10.7516 39.5843 10.7516C40.1783 10.7516 40.6779 10.5565 41.0721 10.1716C41.3319 9.91688 41.4796 9.56565 41.5184 9.11685H39.5843V8.49028H42.1646C42.1957 8.62578 42.2046 8.75695 42.2046 8.88378Z" fill="white" stroke="white" stroke-width="0.16" stroke-miterlimit="10"/>
<path d="M46.2994 6.71126H43.8756V8.359H46.0607V8.98558H43.8756V10.6333H46.2994V11.2718H43.1895V6.07275H46.2994V6.71126Z" fill="white" stroke="white" stroke-width="0.16" stroke-miterlimit="10"/>
<path d="M49.1875 11.2718H48.5014V6.71126H47.0146V6.07275H50.6753V6.71126H49.1875V11.2718Z" fill="white" stroke="white" stroke-width="0.16" stroke-miterlimit="10"/>
<path d="M53.3242 11.2718V6.07275H54.0093V11.2718H53.3242Z" fill="white" stroke="white" stroke-width="0.16" stroke-miterlimit="10"/>
<path d="M57.0459 11.2718H56.3653V6.71126H54.873V6.07275H58.5382V6.71126H57.0459V11.2718Z" fill="white" stroke="white" stroke-width="0.16" stroke-miterlimit="10"/>
<path d="M65.4697 10.6031C64.9445 11.1288 64.2938 11.3912 63.5177 11.3912C62.7372 11.3912 62.0865 11.1288 61.5614 10.6031C61.0373 10.0784 60.7764 9.43448 60.7764 8.6724C60.7764 7.91031 61.0373 7.26639 61.5614 6.74171C62.0865 6.21595 62.7372 5.95361 63.5177 5.95361C64.2894 5.95361 64.94 6.21595 65.4652 6.74605C65.9937 7.27506 66.2547 7.91465 66.2547 8.6724C66.2547 9.43448 65.9937 10.0784 65.4697 10.6031ZM62.0688 10.1673C62.464 10.5565 62.9448 10.7516 63.5177 10.7516C64.0862 10.7516 64.5714 10.5565 64.9622 10.1673C65.3564 9.77812 65.5563 9.27838 65.5563 8.6724C65.5563 8.06642 65.3564 7.56667 64.9622 7.1775C64.5714 6.78833 64.0862 6.5932 63.5177 6.5932C62.9448 6.5932 62.464 6.78833 62.0688 7.1775C61.6746 7.56667 61.4748 8.06642 61.4748 8.6724C61.4748 9.27838 61.6746 9.77812 62.0688 10.1673Z" fill="white" stroke="white" stroke-width="0.16" stroke-miterlimit="10"/>
<path d="M67.2158 11.2718V6.07275H68.0486L70.6378 10.1162H70.6678L70.6378 9.11675V6.07275H71.3229V11.2718H70.6078L67.8964 7.02888H67.8665L67.8964 8.03271V11.2718H67.2158Z" fill="white" stroke="white" stroke-width="0.16" stroke-miterlimit="10"/>
<path d="M60.6072 18.8645C58.5209 18.8645 56.8166 20.4147 56.8166 22.5536C56.8166 24.675 58.5209 26.2415 60.6072 26.2415C62.6979 26.2415 64.4022 24.675 64.4022 22.5536C64.4022 20.4147 62.6979 18.8645 60.6072 18.8645ZM60.6072 24.7888C59.4624 24.7888 58.4776 23.8663 58.4776 22.5536C58.4776 21.2234 59.4624 20.3172 60.6072 20.3172C61.7519 20.3172 62.7412 21.2234 62.7412 22.5536C62.7412 23.8663 61.7519 24.7888 60.6072 24.7888ZM52.3364 18.8645C50.2457 18.8645 48.5458 20.4147 48.5458 22.5536C48.5458 24.675 50.2457 26.2415 52.3364 26.2415C54.4261 26.2415 56.127 24.675 56.127 22.5536C56.127 20.4147 54.4261 18.8645 52.3364 18.8645ZM52.3364 24.7888C51.1906 24.7888 50.2024 23.8663 50.2024 22.5536C50.2024 21.2234 51.1906 20.3172 52.3364 20.3172C53.4812 20.3172 54.466 21.2234 54.466 22.5536C54.466 23.8663 53.4812 24.7888 52.3364 24.7888ZM42.4946 19.9952V21.5627H46.3285C46.2164 22.4386 45.9166 23.0826 45.457 23.5314C44.8974 24.0734 44.0258 24.675 42.4946 24.675C40.1352 24.675 38.2877 22.8159 38.2877 20.5123C38.2877 18.2087 40.1352 16.3496 42.4946 16.3496C43.7704 16.3496 44.6986 16.8363 45.3837 17.4672L46.5151 16.3626C45.5569 15.4693 44.2822 14.7831 42.4946 14.7831C39.2592 14.7831 36.54 17.3534 36.54 20.5123C36.54 23.6712 39.2592 26.2415 42.4946 26.2415C44.2434 26.2415 45.5569 25.6821 46.5895 24.6327C47.6476 23.5997 47.9774 22.147 47.9774 20.9741C47.9774 20.6099 47.9463 20.2749 47.8908 19.9952H42.4946ZM82.739 21.2104C82.427 20.3855 81.4644 18.8645 79.5036 18.8645C77.5605 18.8645 75.9428 20.3594 75.9428 22.5536C75.9428 24.6197 77.5439 26.2415 79.6901 26.2415C81.4255 26.2415 82.427 25.2084 82.8389 24.6067L81.551 23.7688C81.1213 24.3823 80.5361 24.7888 79.6901 24.7888C78.8496 24.7888 78.2467 24.4127 77.8603 23.6712L82.9133 21.6299L82.739 21.2104ZM77.5872 22.4386C77.5439 21.0164 78.7186 20.2879 79.5602 20.2879C80.2197 20.2879 80.7793 20.6099 80.9658 21.0706L77.5872 22.4386ZM73.4801 26.0171H75.1411V15.1766H73.4801V26.0171ZM70.7599 19.6863H70.7043C70.3313 19.2548 69.6196 18.8645 68.718 18.8645C66.826 18.8645 65.0962 20.4863 65.0962 22.5655C65.0962 24.6327 66.826 26.2415 68.718 26.2415C69.6196 26.2415 70.3313 25.848 70.7043 25.4035H70.7599V25.9325C70.7599 27.3429 69.9882 28.1006 68.7435 28.1006C67.7287 28.1006 67.0992 27.3851 66.8393 26.7835L65.3948 27.3721C65.8112 28.3499 66.9137 29.5532 68.7435 29.5532C70.691 29.5532 72.3343 28.4345 72.3343 25.7125V19.0889H70.7599V19.6863ZM68.8601 24.7888C67.7154 24.7888 66.7572 23.8533 66.7572 22.5655C66.7572 21.2657 67.7154 20.3172 68.8601 20.3172C69.9882 20.3172 70.8775 21.2657 70.8775 22.5655C70.8775 23.8533 69.9882 24.7888 68.8601 24.7888ZM90.5156 15.1766H86.5429V26.0171H88.1995V21.9096H90.5156C92.3554 21.9096 94.1597 20.6099 94.1597 18.5426C94.1597 16.4764 92.351 15.1766 90.5156 15.1766ZM90.5589 20.4017H88.1995V16.6845H90.5589C91.7958 16.6845 92.502 17.6873 92.502 18.5426C92.502 19.3816 91.7958 20.4017 90.5589 20.4017ZM100.799 18.8439C99.6024 18.8439 98.3578 19.36 97.8459 20.5036L99.316 21.1053C99.6324 20.5036 100.214 20.3085 100.829 20.3085C101.689 20.3085 102.56 20.8126 102.574 21.7026V21.8164C102.274 21.6473 101.632 21.3969 100.843 21.3969C99.2593 21.3969 97.646 22.2478 97.646 23.836C97.646 25.2886 98.9429 26.2241 100.401 26.2241C101.515 26.2241 102.131 25.7331 102.517 25.1618H102.574V25.9997H104.174V21.8413C104.174 19.9193 102.704 18.8439 100.799 18.8439ZM100.599 24.7845C100.058 24.7845 99.3026 24.5222 99.3026 23.8663C99.3026 23.0273 100.244 22.7053 101.059 22.7053C101.789 22.7053 102.131 22.8625 102.574 23.0696C102.444 24.0734 101.559 24.7845 100.599 24.7845ZM110.003 19.0814L108.099 23.7807H108.042L106.073 19.0814H104.287L107.245 25.6485L105.557 29.3028H107.288L111.846 19.0814H110.003ZM95.0701 26.0171H96.7312V15.1766H95.0701V26.0171Z" fill="white"/>
<path d="M9.35431 6.5378C9.09338 6.80447 8.94238 7.21966 8.94238 7.75735V26.9363C8.94238 27.474 9.09338 27.8891 9.35431 28.1558L9.41871 28.2144L20.4263 17.4715V17.2178L9.41871 6.47493L9.35431 6.5378Z" fill="url(#paint0_linear_4960_2704)"/>
<path d="M24.0919 21.0542L20.4268 17.4714V17.2178L24.0963 13.635L24.1785 13.6816L28.5243 16.0958C29.7645 16.7809 29.7645 17.9083 28.5243 18.5978L24.1785 21.0076L24.0919 21.0542Z" fill="url(#paint1_linear_4960_2704)"/>
<path d="M24.1792 21.0076L20.4275 17.3446L9.35547 28.1558C9.76739 28.5786 10.4391 28.6295 11.203 28.2068L24.1792 21.0076Z" fill="url(#paint2_linear_4960_2704)"/>
<path d="M24.1792 13.6817L11.203 6.4826C10.4391 6.06416 9.76739 6.11511 9.35547 6.53789L20.4275 17.3447L24.1792 13.6817Z" fill="url(#paint3_linear_4960_2704)"/>
<defs>
<linearGradient id="paint0_linear_4960_2704" x1="19.449" y1="27.136" x2="4.89887" y2="12.2333" gradientUnits="userSpaceOnUse">
<stop stop-color="#00A0FF"/>
<stop offset="0.0066" stop-color="#00A1FF"/>
<stop offset="0.2601" stop-color="#00BEFF"/>
<stop offset="0.5122" stop-color="#00D2FF"/>
<stop offset="0.7604" stop-color="#00DFFF"/>
<stop offset="1" stop-color="#00E3FF"/>
</linearGradient>
<linearGradient id="paint1_linear_4960_2704" x1="30.1392" y1="17.3434" x2="8.64635" y2="17.3434" gradientUnits="userSpaceOnUse">
<stop stop-color="#FFE000"/>
<stop offset="0.4087" stop-color="#FFBD00"/>
<stop offset="0.7754" stop-color="#FFA500"/>
<stop offset="1" stop-color="#FF9C00"/>
</linearGradient>
<linearGradient id="paint2_linear_4960_2704" x1="22.1392" y1="15.3534" x2="2.40801" y2="-4.85589" gradientUnits="userSpaceOnUse">
<stop stop-color="#FF3A44"/>
<stop offset="1" stop-color="#C31162"/>
</linearGradient>
<linearGradient id="paint3_linear_4960_2704" x1="6.56841" y1="34.5366" x2="15.3793" y2="25.5124" gradientUnits="userSpaceOnUse">
<stop stop-color="#32A071"/>
<stop offset="0.0685" stop-color="#2DA771"/>
<stop offset="0.4762" stop-color="#15CF74"/>
<stop offset="0.8009" stop-color="#06E775"/>
<stop offset="1" stop-color="#00F076"/>
</linearGradient>
</defs>
</svg>
