<svg width="200" height="29" viewBox="0 0 200 29" fill="none" xmlns="http://www.w3.org/2000/svg">
<path d="M188.608 24.8883C188.941 25.0683 189.191 25.4272 188.556 25.6841L188.45 25.7254C184.545 27.2311 180.455 28.2295 176.285 28.6953C175.908 28.7373 175.595 28.6132 175.551 28.4105L175.244 26.9889C175.192 26.7481 175.496 26.5225 175.913 26.445C178.764 25.9209 181.55 25.1065 184.228 24.015C184.266 24.0011 184.45 23.927 184.498 23.9094C184.658 23.8452 184.804 23.7522 184.929 23.6353C185.045 23.5051 185.057 23.4398 185.02 23.2243C185.005 23.1363 185.093 23.015 185.174 23.0553L188.608 24.8883Z" fill="#E56424"/>
<path d="M196.842 18.1021C197.165 18.1197 197.409 18.3809 197.125 18.7136C197.061 18.7887 197 18.8581 196.947 18.9151C195.147 20.8611 193.095 22.5688 190.844 23.9951C190.699 24.09 190.536 24.1539 190.365 24.1827C190.194 24.2115 190.018 24.2045 189.85 24.1622L186.896 23.0949C186.595 22.9862 186.602 22.7044 186.919 22.4762C188.439 21.4033 189.832 20.1674 191.072 18.7915C191.095 18.7687 191.194 18.6539 191.213 18.6289C191.391 18.3969 191.321 18.2193 191.204 18.0118C191.158 17.9301 191.184 17.8039 191.281 17.809L196.842 18.1021Z" fill="#E56424"/>
<path d="M198.094 16.5525L198.092 16.5569C197.991 16.6907 197.86 16.8003 197.71 16.8773C197.559 16.9543 197.393 16.9967 197.223 17.0013L192.668 17.1096C192.329 17.1177 192.168 16.9336 192.295 16.6966C193.094 15.2064 193.537 13.9074 193.675 12.574C193.678 12.5691 193.695 12.3872 193.702 12.2776C193.71 12.1993 193.695 12.1205 193.658 12.0505C193.621 11.9806 193.565 11.9225 193.495 11.8831C193.416 11.819 193.38 11.6777 193.481 11.6529L199.513 10.2403C199.767 10.1808 200.006 10.234 200 10.6196C199.994 10.9226 199.972 11.225 199.934 11.5258C199.725 13.1024 199.124 14.7908 198.094 16.5525Z" fill="#E56424"/>
<path d="M198.981 9.37781L194.324 10.6577C193.937 10.7633 193.626 10.6709 193.584 10.445C193.361 9.26269 193.128 8.43063 192.399 7.55474C192.354 7.5007 192.255 7.37326 192.203 7.32204C192.013 7.13492 191.945 7.01787 191.6 7.00995C191.487 7.00731 191.374 6.8554 191.49 6.79872L196.966 4.24058C197.04 4.20613 197.123 4.19507 197.204 4.20895C197.285 4.22283 197.359 4.26095 197.417 4.31803C198.614 5.48943 199.433 6.98024 199.771 8.60436C199.851 8.98774 199.457 9.24702 198.981 9.37781Z" fill="#387AFF"/>
<path d="M194.468 2.13616L194.011 2.52992L190.276 5.32639C190.195 5.26725 190.208 5.3792 190.127 5.32639C189.932 5.18716 189.801 5.0143 189.597 4.87525C188.718 4.29465 187.754 3.84689 186.738 3.54698C186.426 3.46354 186.222 3.37096 185.932 3.47322C185.826 3.51072 185.664 3.41496 185.746 3.33892L188.746 0.538574C188.828 0.462421 188.926 0.40571 189.034 0.372859C189.141 0.340007 189.255 0.331901 189.366 0.349174C191.004 0.605111 192.921 1.41147 194.192 1.98742C194.289 2.02781 194.381 2.07764 194.468 2.13616Z" fill="#387AFF"/>
<path d="M195.082 2.53183L190.717 5.86799C190.617 5.79089 190.327 5.56875 190.246 5.50714L194.578 2.1958C194.665 2.2604 194.979 2.45191 195.082 2.53183Z" fill="#387AFF"/>
<path d="M195.584 3.79664L191.282 6.04374C191.222 6.0677 191.156 6.07767 191.092 6.07288C191.027 6.06809 190.964 6.04866 190.908 6.01611C190.855 5.97474 190.687 5.84519 190.616 5.79062L195.082 2.53174C195.338 2.73223 195.621 2.96651 195.808 3.14958C195.943 3.28124 195.956 3.59439 195.584 3.79664Z" fill="#387AFF"/>
<path d="M187.467 0.697059L185.718 2.36382C185.478 2.59265 184.919 2.94469 184.649 2.89857C183.024 2.63116 181.37 2.56875 179.729 2.71287C175.739 3.00384 171.455 4.19921 167.57 6.05501C167.266 6.19988 166.737 6.34703 166.443 6.497C166.44 6.497 166.464 6.5741 166.463 6.57692C166.447 6.58252 166.433 6.59225 166.422 6.60508L166.184 6.07138C166.193 6.06522 166.169 6.05501 166.169 6.05501C166.369 5.9193 166.572 5.80858 166.574 5.80858C171.802 2.65531 177.925 0.497449 183.725 0.0748185C184.925 -0.0166773 186.131 -0.0242658 187.332 0.0521113C187.715 0.0778106 187.783 0.39694 187.467 0.697059Z" fill="#387AFF"/>
<path d="M196.647 0.65662L196.153 1.10249L195.558 1.55504L178.168 14.7754L181.963 23.0279C182.001 23.1118 182.018 23.2039 182.011 23.2957C182.004 23.3874 181.973 23.476 181.922 23.5533C181.871 23.6306 181.801 23.6941 181.719 23.7381C181.636 23.7821 181.543 23.8051 181.449 23.805H174.335L172.19 19.1422L166.361 23.3961C163.778 25.345 169.305 26.9396 172.904 26.8497C172.927 26.8509 173.12 26.8458 173.144 26.8442C173.547 26.809 173.89 26.7229 174.156 26.3559C174.232 26.2503 174.413 26.2274 174.416 26.3128L174.509 28.436C174.522 28.7407 174.056 29.0158 173.567 28.9993C170.451 28.9151 167.363 28.3956 164.397 27.4566C161.951 26.659 159.898 25.6063 158.263 24.3711C158.251 24.3683 158.248 24.3623 158.239 24.3568C157.925 24.1071 157.697 23.9059 157.833 23.8233L158.432 23.4517L170.68 15.8634L166.421 6.60601L166.177 6.07354L166.169 6.05594H173.539C173.927 6.05594 174.226 6.20697 174.344 6.46202L176.64 11.4556L175.63 12.7983L196.127 0.107077C196.627 -0.236696 197.041 0.330978 196.647 0.65662Z" fill="#E56424"/>
<path d="M163.171 6.05518H155.15L155.132 9.55539L148.918 23.8055H154.211C154.884 23.8055 155.622 23.3644 155.859 22.8197L163.171 6.05518Z" fill="#E56424"/>
<path d="M151.271 6.05801H147.882C147.213 6.05801 146.481 6.49807 146.245 7.04128L142.694 15.2316C142.6 15.4476 142.24 15.4986 142.128 15.3119L137.985 6.40671C137.898 6.28796 137.781 6.19338 137.645 6.13224C137.51 6.07111 137.36 6.04553 137.212 6.05801H132.093L132.085 6.06048H129.394L129.378 9.52812L123.205 23.7606H128.43C129.098 23.7606 129.831 23.3206 130.066 22.7773L133.269 15.3969L133.6 11.6277L135.172 15.2726L135.165 15.2756L139.013 23.4109C139.1 23.53 139.217 23.6249 139.352 23.6862C139.488 23.7475 139.638 23.7732 139.786 23.7606H144.217C144.885 23.7606 145.618 23.3206 145.853 22.7773L153.104 6.05801H151.271Z" fill="#E56424"/>
<path d="M102.591 6.03939C94.1166 15.7625 96.4299 13.0954 87.7655 23.1312C87.5847 23.3335 87.3632 23.4973 87.115 23.6124C86.8668 23.7275 86.597 23.7914 86.3225 23.8001H78.1191C78.1911 12.5552 78.1812 15.918 78.1664 6.03833H84.1424C84.6588 6.03833 85.0033 6.30236 85.0033 6.69912L84.9769 17.0109L83.7147 19.9415L85.52 17.8542L95.7499 6.03939H102.591Z" fill="#E56424"/>
<path d="M125.728 10.6537C126.83 8.10493 125.188 6.03931 122.061 6.03931H109.747C106.618 6.03931 103.189 8.10493 102.086 10.6537L98.403 19.1646C97.3001 21.7131 98.9413 23.779 102.069 23.779H114.384C117.513 23.779 120.942 21.7131 122.045 19.1646L125.728 10.6537ZM115.843 18.5582C115.749 18.7331 115.608 18.8801 115.436 18.9837C115.264 19.0874 115.067 19.1439 114.865 19.1474H105.598C105.198 19.1474 104.989 18.8833 105.13 18.5582L108.141 11.6062L106.307 10.6071H118.561C118.96 10.6071 119.17 10.8711 119.028 11.1964L115.843 18.5582Z" fill="#E56424"/>
<path d="M53.8191 9.52993L47.6455 23.7652H52.8937C53.5614 23.7652 54.2943 23.3252 54.5298 22.782L55.949 19.5129C55.9806 19.4545 56.0275 19.4055 56.085 19.3709C56.1425 19.3363 56.2084 19.3175 56.2759 19.3163L61.1664 19.3115C61.2382 19.3144 61.3084 19.3333 61.3715 19.3669C61.4347 19.4005 61.4891 19.4478 61.5307 19.5051L63.4092 24.0553H69.6563C70.3331 24.0541 70.873 23.4697 70.6452 22.9803L68.8113 19.0163C68.7669 18.9206 68.8652 18.7908 69.0166 18.7347C71.1262 17.9528 72.9925 16.4406 73.7532 14.6874L75.4996 10.6584C76.6054 8.10608 74.9575 6.03711 71.8177 6.03711H53.8362L53.8191 9.52993ZM68.0185 10.4711C68.6149 10.4711 68.928 10.8644 68.7178 11.3491L67.5685 13.9997C67.3558 14.4823 66.7055 14.8733 66.1107 14.8733H57.964L59.372 11.6299L57.0123 10.4711H68.0185Z" fill="#387AFF"/>
<path d="M0.348934 19.177C-0.76582 21.7316 0.878981 23.8064 4.02115 23.8064H16.8493C17.5172 23.8064 18.2501 23.3664 18.4855 22.8232L20.0715 19.1666H7.59718C7.19604 19.1666 6.98586 18.9026 7.12718 18.5764L10.1349 11.6457L8.1817 10.61H22.5725C23.2404 10.61 23.9733 10.1699 24.2086 9.62639L25.7688 6.02954H11.7574C8.62599 6.02954 5.19164 8.08901 4.07995 10.635L0.348934 19.177Z" fill="#387AFF"/>
<path d="M43.0727 6.06934L34.6486 6.07708L34.6364 8.54897L20.4698 22.531L19.1328 23.8059H23.0165L26.0011 23.7621C26.4113 23.7499 26.8026 23.5904 27.1004 23.3141L27.4656 22.973L25.5164 21.8426H38.9853L39.2157 23.3097C39.2595 23.5875 39.4997 23.7621 39.8388 23.7621L46.2832 23.8059L43.0727 6.06934ZM32.8991 17.6215L37.5532 13.0052L38.3222 17.6215H32.8991Z" fill="#387AFF"/>
</svg>
