<svg width="15" height="15" viewBox="0 0 15 15" fill="none" xmlns="http://www.w3.org/2000/svg">
<path d="M7.96319 11.5021L9.34401 10.1212C9.68667 9.77858 10.2257 9.73091 10.6232 10.0081L12.4655 11.293C12.8468 11.559 12.8951 12.1049 12.5663 12.4337V12.4337C12.0359 12.9641 11.2741 13.1945 10.5632 12.9547C9.24198 12.5091 7.02043 11.5458 5.16378 9.68917C3.30712 7.83252 2.3438 5.61097 1.8982 4.28971C1.65846 3.57887 1.88881 2.81709 2.41926 2.28664V2.28664C2.748 1.9579 3.29398 2.00618 3.55993 2.3875L4.84482 4.22978C5.12204 4.62725 5.07437 5.16628 4.73171 5.50894L3.35089 6.88976" stroke="#8E8E93" stroke-linecap="round"/>
</svg>
